<svg xmlns="http://www.w3.org/2000/svg" xmlns:xlink="http://www.w3.org/1999/xlink" width="500" zoomAndPan="magnify" viewBox="0 0 375 374.999991" height="500" preserveAspectRatio="xMidYMid meet" version="1.0"><defs><g/></defs><g fill="#595858" fill-opacity="1"><g transform="translate(108.667967, 191.989735)"><g><path d="M 1.109375 -8.125 C 1.234375 -9.289062 1.476562 -10.234375 1.84375 -10.953125 C 2.21875 -11.671875 2.941406 -12.101562 4.015625 -12.25 C 4.503906 -12.300781 4.925781 -12.46875 5.28125 -12.75 C 5.644531 -13.03125 6.023438 -13.296875 6.421875 -13.546875 C 6.910156 -13.960938 7.320312 -14.265625 7.65625 -14.453125 C 8 -14.640625 8.328125 -14.734375 8.640625 -14.734375 C 8.941406 -14.734375 9.257812 -14.640625 9.59375 -14.453125 C 9.925781 -14.265625 10.328125 -13.988281 10.796875 -13.625 C 11.191406 -13.320312 11.53125 -12.972656 11.8125 -12.578125 C 12.101562 -12.179688 12.421875 -11.832031 12.765625 -11.53125 C 13.109375 -11.238281 13.554688 -11.09375 14.109375 -11.09375 C 14.578125 -11.09375 14.976562 -11.21875 15.3125 -11.46875 C 15.644531 -11.71875 15.957031 -12.015625 16.25 -12.359375 C 16.550781 -12.703125 16.863281 -13 17.1875 -13.25 C 18.195312 -14.039062 19.144531 -14.617188 20.03125 -14.984375 C 20.925781 -15.359375 21.722656 -15.546875 22.421875 -15.546875 C 23.429688 -15.546875 24.316406 -15.164062 25.078125 -14.40625 C 25.847656 -13.65625 26.601562 -12.515625 27.34375 -10.984375 C 27.769531 -10.117188 28.289062 -9.3125 28.90625 -8.5625 C 29.53125 -7.820312 30.082031 -7.101562 30.5625 -6.40625 C 31.039062 -5.71875 31.28125 -5.003906 31.28125 -4.265625 C 31.28125 -3.867188 31.175781 -3.453125 30.96875 -3.015625 C 30.757812 -2.585938 30.472656 -2.222656 30.109375 -1.921875 C 29.753906 -1.628906 29.351562 -1.484375 28.90625 -1.484375 C 28.382812 -1.484375 27.84375 -1.726562 27.28125 -2.21875 C 26.726562 -2.71875 26.179688 -3.332031 25.640625 -4.0625 C 25.097656 -4.789062 24.578125 -5.515625 24.078125 -6.234375 C 23.585938 -6.953125 23.140625 -7.554688 22.734375 -8.046875 C 22.328125 -8.546875 21.972656 -8.796875 21.671875 -8.796875 C 21.347656 -8.796875 20.914062 -8.539062 20.375 -8.03125 C 19.832031 -7.53125 19.234375 -6.910156 18.578125 -6.171875 C 17.921875 -5.441406 17.28125 -4.742188 16.65625 -4.078125 C 16.257812 -3.640625 15.816406 -3.421875 15.328125 -3.421875 C 14.984375 -3.421875 14.53125 -3.578125 13.96875 -3.890625 C 13.414062 -4.210938 12.820312 -4.601562 12.1875 -5.0625 C 11.5625 -5.519531 10.953125 -5.984375 10.359375 -6.453125 C 9.765625 -6.921875 9.257812 -7.316406 8.84375 -7.640625 C 8.4375 -7.960938 8.1875 -8.125 8.09375 -8.125 C 7.769531 -8.125 7.519531 -7.941406 7.34375 -7.578125 C 7.175781 -7.222656 7.03125 -6.785156 6.90625 -6.265625 C 6.78125 -5.753906 6.625 -5.238281 6.4375 -4.71875 C 6.25 -4.195312 5.988281 -3.753906 5.65625 -3.390625 C 5.320312 -3.035156 4.859375 -2.859375 4.265625 -2.859375 C 3.523438 -2.859375 2.957031 -3.0625 2.5625 -3.46875 C 2.164062 -3.875 1.875 -4.375 1.6875 -4.96875 C 1.5 -5.5625 1.375 -6.148438 1.3125 -6.734375 C 1.25 -7.316406 1.179688 -7.78125 1.109375 -8.125 Z M 1.109375 -8.125 "/></g></g></g><g fill="#595858" fill-opacity="1"><g transform="translate(141.057628, 191.989735)"><g><path d="M 4.671875 1.375 C 3.554688 1.300781 2.679688 0.96875 2.046875 0.375 C 1.421875 -0.21875 1.109375 -0.945312 1.109375 -1.8125 C 1.109375 -2.332031 1.222656 -2.867188 1.453125 -3.421875 C 2.085938 -4.921875 2.945312 -6.222656 4.03125 -7.328125 C 5.125 -8.429688 6.515625 -9.164062 8.203125 -9.53125 C 8.691406 -9.65625 9.164062 -9.785156 9.625 -9.921875 C 10.082031 -10.054688 10.523438 -10.320312 10.953125 -10.71875 C 11.710938 -11.4375 12.476562 -11.796875 13.25 -11.796875 C 13.820312 -11.796875 14.347656 -11.578125 14.828125 -11.140625 C 15.304688 -10.710938 15.632812 -10.066406 15.8125 -9.203125 C 15.9375 -8.585938 16.101562 -8.015625 16.3125 -7.484375 C 16.519531 -6.953125 16.910156 -6.5 17.484375 -6.125 C 17.773438 -5.925781 18.03125 -5.695312 18.25 -5.4375 C 18.476562 -5.175781 18.59375 -4.875 18.59375 -4.53125 C 18.59375 -3.90625 18.398438 -3.421875 18.015625 -3.078125 C 17.628906 -2.734375 17.171875 -2.492188 16.640625 -2.359375 C 16.109375 -2.222656 15.617188 -2.15625 15.171875 -2.15625 C 14.703125 -2.15625 14.242188 -2.207031 13.796875 -2.3125 C 13.359375 -2.425781 12.925781 -2.644531 12.5 -2.96875 C 12.0625 -3.3125 11.644531 -3.484375 11.25 -3.484375 C 10.65625 -3.484375 10.132812 -3.085938 9.6875 -2.296875 C 9.363281 -1.734375 8.929688 -1.160156 8.390625 -0.578125 C 7.847656 0.00390625 7.289062 0.488281 6.71875 0.875 C 6.144531 1.257812 5.625 1.453125 5.15625 1.453125 C 5.03125 1.453125 4.867188 1.425781 4.671875 1.375 Z M 4.671875 1.375 "/></g></g></g><g fill="#595858" fill-opacity="1"><g transform="translate(160.758563, 191.989735)"><g><path d="M 7.6875 -13.28125 C 7.6875 -11.851562 7.625 -10.421875 7.5 -8.984375 C 7.375 -7.546875 7.3125 -6.097656 7.3125 -4.640625 C 7.3125 -3.941406 7.375 -3.253906 7.5 -2.578125 C 7.625 -1.898438 7.6875 -1.226562 7.6875 -0.5625 C 7.6875 -0.113281 7.546875 0.335938 7.265625 0.796875 C 6.992188 1.253906 6.660156 1.644531 6.265625 1.96875 C 5.867188 2.289062 5.472656 2.453125 5.078125 2.453125 C 4.710938 2.453125 4.316406 2.289062 3.890625 1.96875 C 3.472656 1.644531 3.101562 1.238281 2.78125 0.75 C 2.457031 0.269531 2.257812 -0.226562 2.1875 -0.75 C 1.96875 -2.75 1.859375 -4.75 1.859375 -6.75 C 1.859375 -9.28125 1.929688 -11.878906 2.078125 -14.546875 C 2.222656 -17.222656 2.382812 -19.832031 2.5625 -22.375 C 2.632812 -23.664062 2.847656 -24.566406 3.203125 -25.078125 C 3.566406 -25.597656 4.171875 -25.859375 5.015625 -25.859375 C 5.929688 -25.859375 6.671875 -25.535156 7.234375 -24.890625 C 7.804688 -24.253906 8.09375 -23.414062 8.09375 -22.375 C 8.09375 -21.019531 8.015625 -19.6875 7.859375 -18.375 C 7.710938 -17.0625 7.640625 -15.75 7.640625 -14.4375 C 7.640625 -14.257812 7.640625 -14.070312 7.640625 -13.875 C 7.640625 -13.675781 7.65625 -13.476562 7.6875 -13.28125 Z M 7.6875 -13.28125 "/></g></g></g><g fill="#595858" fill-opacity="1"><g transform="translate(169.959749, 191.989735)"><g><path d="M 14.40625 -11.765625 C 14.894531 -11.515625 15.375 -11.390625 15.84375 -11.390625 C 16.46875 -11.390625 17.128906 -11.644531 17.828125 -12.15625 C 18.535156 -12.664062 19.226562 -13.320312 19.90625 -14.125 C 20.59375 -14.925781 21.21875 -15.757812 21.78125 -16.625 C 22.351562 -17.488281 22.800781 -18.289062 23.125 -19.03125 C 23.394531 -19.65625 23.640625 -20.253906 23.859375 -20.828125 C 24.085938 -21.410156 24.203125 -22.023438 24.203125 -22.671875 C 24.203125 -23.191406 24.101562 -23.734375 23.90625 -24.296875 C 23.707031 -24.867188 23.609375 -25.40625 23.609375 -25.90625 C 23.609375 -26.394531 23.722656 -26.910156 23.953125 -27.453125 C 24.191406 -28.003906 24.488281 -28.53125 24.84375 -29.03125 C 25.207031 -29.539062 25.585938 -29.953125 25.984375 -30.265625 C 26.378906 -30.578125 26.734375 -30.734375 27.046875 -30.734375 C 27.347656 -30.734375 27.710938 -30.613281 28.140625 -30.375 C 28.578125 -30.132812 28.96875 -29.835938 29.3125 -29.484375 C 29.664062 -29.128906 29.84375 -28.765625 29.84375 -28.390625 C 29.84375 -28.316406 29.816406 -28.179688 29.765625 -27.984375 C 29.492188 -26.890625 29.28125 -25.773438 29.125 -24.640625 C 28.976562 -23.503906 28.785156 -22.378906 28.546875 -21.265625 C 28.316406 -20.148438 27.929688 -19.050781 27.390625 -17.96875 C 25.503906 -14.226562 23.035156 -10.894531 19.984375 -7.96875 C 16.929688 -5.050781 13.507812 -2.789062 9.71875 -1.1875 C 9.25 -0.988281 8.765625 -0.796875 8.265625 -0.609375 C 7.773438 -0.421875 7.257812 -0.328125 6.71875 -0.328125 C 5.207031 -0.328125 4.019531 -0.691406 3.15625 -1.421875 C 2.289062 -2.160156 1.859375 -3.046875 1.859375 -4.078125 C 1.859375 -4.503906 1.925781 -4.929688 2.0625 -5.359375 C 2.195312 -5.796875 2.410156 -6.238281 2.703125 -6.6875 C 3.648438 -8.070312 4.765625 -9.171875 6.046875 -9.984375 C 7.335938 -10.796875 8.820312 -11.300781 10.5 -11.5 C 11.144531 -11.53125 11.800781 -11.5625 12.46875 -11.59375 C 13.132812 -11.632812 13.78125 -11.691406 14.40625 -11.765625 Z M 14.40625 -11.765625 "/></g></g></g><g fill="#595858" fill-opacity="1"><g transform="translate(197.935173, 191.989735)"><g><path d="M 4.453125 -7.453125 C 5.066406 -7.410156 5.613281 -7.160156 6.09375 -6.703125 C 6.582031 -6.242188 6.96875 -5.691406 7.25 -5.046875 C 7.539062 -4.398438 7.6875 -3.757812 7.6875 -3.125 C 7.6875 -2.5 7.429688 -1.875 6.921875 -1.25 C 6.410156 -0.632812 5.796875 -0.328125 5.078125 -0.328125 C 4.515625 -0.328125 3.984375 -0.554688 3.484375 -1.015625 C 2.992188 -1.472656 2.597656 -2.066406 2.296875 -2.796875 C 2.003906 -3.523438 1.859375 -4.273438 1.859375 -5.046875 C 1.859375 -6.015625 2.109375 -6.65625 2.609375 -6.96875 C 3.117188 -7.289062 3.734375 -7.453125 4.453125 -7.453125 Z M 7.3125 -17.625 C 7.207031 -16.863281 6.921875 -16.203125 6.453125 -15.640625 C 5.984375 -15.085938 5.441406 -14.8125 4.828125 -14.8125 C 4.035156 -14.8125 3.347656 -15.082031 2.765625 -15.625 C 2.179688 -16.164062 1.890625 -16.769531 1.890625 -17.4375 C 1.890625 -18.15625 2.148438 -18.789062 2.671875 -19.34375 C 3.191406 -19.90625 3.820312 -20.1875 4.5625 -20.1875 C 5.03125 -20.1875 5.46875 -20.050781 5.875 -19.78125 C 6.289062 -19.507812 6.632812 -19.175781 6.90625 -18.78125 C 7.175781 -18.382812 7.3125 -18 7.3125 -17.625 Z M 7.3125 -17.625 "/></g></g></g><g fill="#595858" fill-opacity="1"><g transform="translate(206.728241, 191.989735)"><g><path d="M 14.921875 -5.265625 C 14.941406 -5.171875 14.953125 -5.078125 14.953125 -4.984375 C 14.953125 -4.898438 14.953125 -4.8125 14.953125 -4.71875 C 14.953125 -3.96875 14.679688 -3.320312 14.140625 -2.78125 C 13.597656 -2.238281 12.960938 -1.75 12.234375 -1.3125 C 11.503906 -0.882812 10.878906 -0.445312 10.359375 0 C 10.179688 0.175781 9.972656 0.28125 9.734375 0.3125 C 9.503906 0.351562 9.289062 0.382812 9.09375 0.40625 C 8.75 0.40625 8.410156 0.335938 8.078125 0.203125 C 7.742188 0.0664062 7.414062 -0.0976562 7.09375 -0.296875 C 5.582031 -1.285156 4.34375 -2.476562 3.375 -3.875 C 2.414062 -5.269531 1.613281 -6.800781 0.96875 -8.46875 C 0.820312 -8.8125 0.75 -9.128906 0.75 -9.421875 C 0.75 -9.890625 0.957031 -10.269531 1.375 -10.5625 C 1.789062 -10.863281 2.210938 -11.015625 2.640625 -11.015625 C 3.359375 -11.015625 3.972656 -10.773438 4.484375 -10.296875 C 5.003906 -9.816406 5.457031 -9.257812 5.84375 -8.625 C 6.226562 -8 6.585938 -7.441406 6.921875 -6.953125 C 7.253906 -6.472656 7.609375 -6.234375 7.984375 -6.234375 C 8.453125 -6.234375 8.890625 -6.457031 9.296875 -6.90625 C 9.703125 -7.351562 10.109375 -7.863281 10.515625 -8.4375 C 10.929688 -9.019531 11.347656 -9.535156 11.765625 -9.984375 C 12.179688 -10.429688 12.640625 -10.65625 13.140625 -10.65625 C 13.609375 -10.550781 13.960938 -10.242188 14.203125 -9.734375 C 14.453125 -9.234375 14.632812 -8.722656 14.75 -8.203125 C 14.863281 -7.679688 14.921875 -7.347656 14.921875 -7.203125 C 14.921875 -6.953125 14.90625 -6.710938 14.875 -6.484375 C 14.851562 -6.265625 14.84375 -6.054688 14.84375 -5.859375 C 14.84375 -5.765625 14.847656 -5.664062 14.859375 -5.5625 C 14.867188 -5.46875 14.890625 -5.367188 14.921875 -5.265625 Z M 14.921875 -5.265625 "/></g></g></g><g fill="#595858" fill-opacity="1"><g transform="translate(223.164233, 191.989735)"><g><path d="M 16.140625 -5.640625 C 16.335938 -5.316406 16.609375 -5.097656 16.953125 -4.984375 C 17.304688 -4.878906 17.691406 -4.8125 18.109375 -4.78125 C 18.523438 -4.757812 18.925781 -4.710938 19.3125 -4.640625 C 19.695312 -4.566406 20.015625 -4.398438 20.265625 -4.140625 C 20.515625 -3.878906 20.640625 -3.460938 20.640625 -2.890625 C 20.640625 -2.148438 20.421875 -1.546875 19.984375 -1.078125 C 19.546875 -0.609375 19 -0.253906 18.34375 -0.015625 C 17.695312 0.210938 17.003906 0.367188 16.265625 0.453125 C 15.535156 0.546875 14.875 0.59375 14.28125 0.59375 C 13.375 0.59375 12.484375 0.429688 11.609375 0.109375 C 10.742188 -0.210938 9.929688 -0.769531 9.171875 -1.5625 C 8.703125 -2.050781 8.242188 -2.410156 7.796875 -2.640625 C 7.347656 -2.878906 6.863281 -3 6.34375 -3 C 5.976562 -3 5.570312 -2.925781 5.125 -2.78125 C 4.675781 -2.632812 4.242188 -2.5625 3.828125 -2.5625 C 3.273438 -2.5625 2.703125 -2.734375 2.109375 -3.078125 C 1.515625 -3.421875 1.015625 -3.863281 0.609375 -4.40625 C 0.203125 -4.957031 0 -5.519531 0 -6.09375 C 0 -6.90625 0.289062 -7.609375 0.875 -8.203125 C 1.457031 -8.796875 2.109375 -9.09375 2.828125 -9.09375 C 2.972656 -9.09375 3.125 -9.085938 3.28125 -9.078125 C 3.445312 -9.066406 3.59375 -9.0625 3.71875 -9.0625 C 4.550781 -9.0625 5.203125 -9.285156 5.671875 -9.734375 C 6.148438 -10.191406 6.625 -10.78125 7.09375 -11.5 C 7.507812 -12.320312 8.109375 -13.03125 8.890625 -13.625 C 9.671875 -14.21875 10.539062 -14.671875 11.5 -14.984375 C 12.46875 -15.304688 13.410156 -15.46875 14.328125 -15.46875 C 15.410156 -15.46875 16.257812 -15.175781 16.875 -14.59375 C 17.5 -14.019531 17.941406 -13.304688 18.203125 -12.453125 C 18.460938 -11.597656 18.59375 -10.773438 18.59375 -9.984375 C 18.59375 -9.566406 18.523438 -9.144531 18.390625 -8.71875 C 18.253906 -8.300781 18 -7.878906 17.625 -7.453125 C 17.375 -7.179688 17.0625 -6.945312 16.6875 -6.75 C 16.320312 -6.550781 16.140625 -6.179688 16.140625 -5.640625 Z M 16.140625 -5.640625 "/></g></g></g><g fill="#595858" fill-opacity="1"><g transform="translate(244.905751, 191.989735)"><g><path d="M 4.1875 3.34375 C 3.425781 3.269531 2.820312 3.039062 2.375 2.65625 C 1.925781 2.269531 1.703125 1.789062 1.703125 1.21875 C 1.703125 0.945312 1.78125 0.640625 1.9375 0.296875 C 2.101562 -0.046875 2.257812 -0.382812 2.40625 -0.71875 C 2.5625 -1.050781 2.640625 -1.34375 2.640625 -1.59375 C 2.640625 -1.9375 2.515625 -2.347656 2.265625 -2.828125 C 1.742188 -3.835938 1.484375 -4.945312 1.484375 -6.15625 C 1.484375 -7.695312 1.890625 -9.132812 2.703125 -10.46875 C 3.523438 -11.800781 4.628906 -12.789062 6.015625 -13.4375 C 6.265625 -13.5625 6.507812 -13.65625 6.75 -13.71875 C 7 -13.78125 7.25 -13.8125 7.5 -13.8125 C 8.1875 -13.8125 8.742188 -13.585938 9.171875 -13.140625 C 9.609375 -12.691406 9.828125 -12.179688 9.828125 -11.609375 C 9.828125 -11.242188 9.722656 -10.914062 9.515625 -10.625 C 9.304688 -10.34375 9.003906 -10.039062 8.609375 -9.71875 C 7.835938 -9.101562 7.257812 -8.578125 6.875 -8.140625 C 6.5 -7.710938 6.3125 -7.285156 6.3125 -6.859375 C 6.3125 -6.460938 6.457031 -6.015625 6.75 -5.515625 C 7.050781 -5.023438 7.484375 -4.375 8.046875 -3.5625 C 8.398438 -3.164062 8.664062 -2.75 8.84375 -2.3125 C 9.03125 -1.882812 9.125 -1.445312 9.125 -1 C 9.125 -0.03125 8.832031 0.769531 8.25 1.40625 C 7.675781 2.050781 7.003906 2.535156 6.234375 2.859375 C 5.460938 3.179688 4.78125 3.34375 4.1875 3.34375 Z M 4.1875 3.34375 "/></g></g></g><g fill="#595858" fill-opacity="1"><g transform="translate(256.221726, 191.989735)"><g><path d="M 1.859375 -3.078125 C 1.929688 -3.722656 2.132812 -4.320312 2.46875 -4.875 C 2.800781 -5.4375 3.203125 -5.894531 3.671875 -6.25 C 4.140625 -6.613281 4.609375 -6.796875 5.078125 -6.796875 C 5.378906 -6.796875 5.707031 -6.65625 6.0625 -6.375 C 6.425781 -6.101562 6.773438 -5.757812 7.109375 -5.34375 C 7.441406 -4.925781 7.710938 -4.5 7.921875 -4.0625 C 8.128906 -3.632812 8.234375 -3.269531 8.234375 -2.96875 C 8.140625 -2.445312 7.898438 -1.957031 7.515625 -1.5 C 7.128906 -1.039062 6.664062 -0.675781 6.125 -0.40625 C 5.582031 -0.132812 5.023438 0 4.453125 0 C 3.535156 0 2.875 -0.289062 2.46875 -0.875 C 2.0625 -1.457031 1.859375 -2.191406 1.859375 -3.078125 Z M 1.859375 -3.078125 "/></g></g></g><g fill="#595858" fill-opacity="1"><g transform="translate(266.3203, 191.989735)"><g/></g></g><g fill="#595858" fill-opacity="1"><g transform="translate(87.287248, 212.721608)"><g><path d="M 9.921875 -2.5 C 9.773438 -1.9375 9.492188 -1.453125 9.078125 -1.046875 C 8.660156 -0.640625 8.171875 -0.34375 7.609375 -0.15625 C 7.046875 0.0390625 6.429688 0.128906 5.765625 0.109375 C 5.109375 0.0859375 4.445312 -0.0507812 3.78125 -0.3125 C 3.65625 -0.28125 3.546875 -0.226562 3.453125 -0.15625 C 3.367188 -0.09375 3.285156 -0.015625 3.203125 0.078125 C 3.085938 0.191406 2.972656 0.273438 2.859375 0.328125 C 2.742188 0.390625 2.585938 0.335938 2.390625 0.171875 C 2.242188 -0.0546875 2.144531 -0.359375 2.09375 -0.734375 C 2.039062 -1.117188 2.023438 -1.523438 2.046875 -1.953125 C 2.066406 -2.378906 2.113281 -2.78125 2.1875 -3.15625 C 2.269531 -3.539062 2.367188 -3.84375 2.484375 -4.0625 C 2.773438 -3.957031 2.972656 -3.789062 3.078125 -3.5625 C 3.179688 -3.34375 3.257812 -3.097656 3.3125 -2.828125 C 3.375 -2.546875 3.429688 -2.265625 3.484375 -1.984375 C 3.546875 -1.710938 3.675781 -1.46875 3.875 -1.25 C 4.09375 -1.03125 4.351562 -0.875 4.65625 -0.78125 C 4.96875 -0.6875 5.289062 -0.640625 5.625 -0.640625 C 6.050781 -0.648438 6.472656 -0.726562 6.890625 -0.875 C 7.304688 -1.019531 7.671875 -1.21875 7.984375 -1.46875 C 8.296875 -1.71875 8.5 -2.003906 8.59375 -2.328125 C 8.664062 -2.878906 8.644531 -3.320312 8.53125 -3.65625 C 8.414062 -3.988281 8.238281 -4.265625 8 -4.484375 C 7.695312 -4.765625 7.332031 -4.988281 6.90625 -5.15625 C 6.476562 -5.332031 6.050781 -5.539062 5.625 -5.78125 C 5.457031 -5.882812 5.304688 -6.003906 5.171875 -6.140625 C 5.046875 -6.285156 4.898438 -6.40625 4.734375 -6.5 C 4.546875 -6.601562 4.351562 -6.6875 4.15625 -6.75 C 3.957031 -6.8125 3.789062 -6.882812 3.65625 -6.96875 C 3.351562 -7.164062 3.097656 -7.414062 2.890625 -7.71875 C 2.679688 -8.03125 2.523438 -8.363281 2.421875 -8.71875 C 2.367188 -8.90625 2.328125 -9.09375 2.296875 -9.28125 C 2.273438 -9.476562 2.265625 -9.675781 2.265625 -9.875 C 2.265625 -10.289062 2.332031 -10.695312 2.46875 -11.09375 C 2.601562 -11.488281 2.8125 -11.847656 3.09375 -12.171875 C 3.59375 -12.398438 4.15625 -12.578125 4.78125 -12.703125 C 5.414062 -12.828125 6.054688 -12.878906 6.703125 -12.859375 C 7.359375 -12.847656 7.96875 -12.71875 8.53125 -12.46875 C 8.582031 -12.5 8.625 -12.53125 8.65625 -12.5625 C 8.695312 -12.601562 8.734375 -12.648438 8.765625 -12.703125 C 8.835938 -12.796875 8.914062 -12.867188 9 -12.921875 C 9.082031 -12.984375 9.207031 -12.960938 9.375 -12.859375 C 9.457031 -12.546875 9.503906 -12.160156 9.515625 -11.703125 C 9.535156 -11.253906 9.523438 -10.816406 9.484375 -10.390625 C 9.441406 -9.960938 9.351562 -9.640625 9.21875 -9.421875 C 8.957031 -9.429688 8.769531 -9.519531 8.65625 -9.6875 C 8.550781 -9.863281 8.488281 -10.078125 8.46875 -10.328125 C 8.445312 -10.585938 8.4375 -10.859375 8.4375 -11.140625 C 8.4375 -11.171875 8.4375 -11.191406 8.4375 -11.203125 C 8.144531 -11.472656 7.765625 -11.679688 7.296875 -11.828125 C 6.835938 -11.972656 6.363281 -12.046875 5.875 -12.046875 C 5.488281 -12.046875 5.125 -11.988281 4.78125 -11.875 C 4.445312 -11.769531 4.171875 -11.601562 3.953125 -11.375 C 3.773438 -11.1875 3.644531 -10.957031 3.5625 -10.6875 C 3.488281 -10.414062 3.492188 -10.09375 3.578125 -9.71875 C 3.597656 -9.582031 3.660156 -9.425781 3.765625 -9.25 C 3.878906 -9.082031 3.988281 -8.945312 4.09375 -8.84375 L 4.203125 -8.71875 C 4.515625 -8.4375 4.894531 -8.175781 5.34375 -7.9375 C 5.800781 -7.695312 6.285156 -7.453125 6.796875 -7.203125 C 7.316406 -6.953125 7.800781 -6.671875 8.25 -6.359375 C 8.664062 -6.078125 9.023438 -5.753906 9.328125 -5.390625 C 9.640625 -5.035156 9.859375 -4.617188 9.984375 -4.140625 C 10.109375 -3.671875 10.085938 -3.125 9.921875 -2.5 Z M 9.921875 -2.5 "/></g></g></g><g fill="#595858" fill-opacity="1"><g transform="translate(99.010678, 212.721608)"><g><path d="M 10.609375 -0.421875 L 10.46875 -0.28125 C 9.832031 -0.238281 9.179688 -0.210938 8.515625 -0.203125 C 7.859375 -0.191406 7.195312 -0.195312 6.53125 -0.21875 C 5.800781 -0.21875 5.078125 -0.210938 4.359375 -0.203125 C 3.640625 -0.191406 2.941406 -0.148438 2.265625 -0.078125 C 2.054688 -0.210938 1.960938 -0.347656 1.984375 -0.484375 C 2.015625 -0.617188 2.054688 -0.742188 2.109375 -0.859375 C 2.171875 -0.972656 2.203125 -1.050781 2.203125 -1.09375 C 2.285156 -1.144531 2.378906 -1.171875 2.484375 -1.171875 C 2.597656 -1.171875 2.710938 -1.171875 2.828125 -1.171875 C 2.890625 -1.171875 2.953125 -1.164062 3.015625 -1.15625 C 3.085938 -1.15625 3.160156 -1.160156 3.234375 -1.171875 C 3.296875 -2.109375 3.328125 -3.09375 3.328125 -4.125 C 3.328125 -5.164062 3.320312 -6.179688 3.3125 -7.171875 C 3.3125 -7.441406 3.304688 -7.703125 3.296875 -7.953125 C 3.285156 -8.210938 3.28125 -8.46875 3.28125 -8.71875 C 3.269531 -9.207031 3.265625 -9.671875 3.265625 -10.109375 C 3.273438 -10.546875 3.289062 -10.957031 3.3125 -11.34375 C 3.21875 -11.363281 3.117188 -11.375 3.015625 -11.375 C 2.921875 -11.382812 2.832031 -11.390625 2.75 -11.390625 C 2.582031 -11.390625 2.425781 -11.40625 2.28125 -11.4375 C 2.132812 -11.476562 2.007812 -11.566406 1.90625 -11.703125 C 1.914062 -11.742188 1.925781 -11.796875 1.9375 -11.859375 C 1.96875 -12.015625 2.007812 -12.164062 2.0625 -12.3125 C 2.125 -12.457031 2.242188 -12.523438 2.421875 -12.515625 C 2.910156 -12.492188 3.453125 -12.472656 4.046875 -12.453125 C 4.640625 -12.441406 5.226562 -12.4375 5.8125 -12.4375 C 6.40625 -12.4375 6.914062 -12.4375 7.34375 -12.4375 C 7.5 -12.4375 7.648438 -12.441406 7.796875 -12.453125 C 7.953125 -12.460938 8.109375 -12.472656 8.265625 -12.484375 C 8.703125 -12.523438 9.125 -12.546875 9.53125 -12.546875 C 9.9375 -12.546875 10.296875 -12.4375 10.609375 -12.21875 C 10.597656 -12.09375 10.59375 -11.941406 10.59375 -11.765625 C 10.601562 -11.597656 10.609375 -11.414062 10.609375 -11.21875 C 10.628906 -10.863281 10.632812 -10.5 10.625 -10.125 C 10.625 -9.757812 10.570312 -9.46875 10.46875 -9.25 C 10.238281 -9.195312 10.066406 -9.222656 9.953125 -9.328125 C 9.847656 -9.441406 9.78125 -9.59375 9.75 -9.78125 C 9.695312 -10.039062 9.660156 -10.332031 9.640625 -10.65625 C 9.617188 -10.976562 9.550781 -11.222656 9.4375 -11.390625 C 9.28125 -11.390625 9.109375 -11.390625 8.921875 -11.390625 C 8.734375 -11.390625 8.539062 -11.398438 8.34375 -11.421875 C 7.726562 -11.421875 7.078125 -11.421875 6.390625 -11.421875 C 5.703125 -11.421875 5.148438 -11.394531 4.734375 -11.34375 C 4.742188 -11.175781 4.75 -10.960938 4.75 -10.703125 C 4.75 -10.453125 4.742188 -10.164062 4.734375 -9.84375 C 4.734375 -9.664062 4.734375 -9.484375 4.734375 -9.296875 C 4.734375 -9.109375 4.734375 -8.914062 4.734375 -8.71875 C 4.734375 -8.414062 4.738281 -8.109375 4.75 -7.796875 C 4.769531 -7.492188 4.796875 -7.203125 4.828125 -6.921875 C 5.328125 -6.972656 5.84375 -7.003906 6.375 -7.015625 C 6.90625 -7.023438 7.425781 -7.046875 7.9375 -7.078125 C 8.101562 -7.148438 8.222656 -7.265625 8.296875 -7.421875 C 8.378906 -7.585938 8.453125 -7.757812 8.515625 -7.9375 C 8.578125 -8.125 8.660156 -8.285156 8.765625 -8.421875 C 8.847656 -8.472656 8.921875 -8.488281 8.984375 -8.46875 C 9.054688 -8.445312 9.128906 -8.414062 9.203125 -8.375 C 9.234375 -8.363281 9.265625 -8.347656 9.296875 -8.328125 C 9.335938 -8.304688 9.382812 -8.289062 9.4375 -8.28125 C 9.363281 -8 9.316406 -7.675781 9.296875 -7.3125 C 9.285156 -6.957031 9.285156 -6.597656 9.296875 -6.234375 C 9.296875 -5.921875 9.289062 -5.613281 9.28125 -5.3125 C 9.269531 -5.019531 9.242188 -4.769531 9.203125 -4.5625 C 8.910156 -4.53125 8.71875 -4.597656 8.625 -4.765625 C 8.539062 -4.941406 8.472656 -5.140625 8.421875 -5.359375 C 8.390625 -5.453125 8.359375 -5.539062 8.328125 -5.625 C 8.304688 -5.71875 8.28125 -5.800781 8.25 -5.875 C 7.65625 -5.96875 7.035156 -6.019531 6.390625 -6.03125 C 5.753906 -6.039062 5.203125 -5.941406 4.734375 -5.734375 C 4.753906 -5.023438 4.769531 -4.300781 4.78125 -3.5625 C 4.789062 -2.820312 4.773438 -2.050781 4.734375 -1.25 C 5.203125 -1.21875 5.71875 -1.195312 6.28125 -1.1875 C 6.84375 -1.175781 7.40625 -1.191406 7.96875 -1.234375 C 8.539062 -1.285156 9.054688 -1.367188 9.515625 -1.484375 C 9.648438 -1.722656 9.742188 -2 9.796875 -2.3125 C 9.847656 -2.625 9.921875 -2.921875 10.015625 -3.203125 C 10.117188 -3.484375 10.296875 -3.675781 10.546875 -3.78125 C 10.742188 -3.394531 10.832031 -2.96875 10.8125 -2.5 C 10.789062 -2.039062 10.75 -1.601562 10.6875 -1.1875 C 10.675781 -1.050781 10.660156 -0.914062 10.640625 -0.78125 C 10.617188 -0.65625 10.609375 -0.535156 10.609375 -0.421875 Z M 10.609375 -0.421875 "/></g></g></g><g fill="#595858" fill-opacity="1"><g transform="translate(111.887237, 212.721608)"><g><path d="M 12.5625 -0.15625 C 12.144531 -0.0390625 11.753906 -0.00390625 11.390625 -0.046875 C 11.023438 -0.0859375 10.65625 -0.15625 10.28125 -0.25 C 10.019531 -0.5625 9.800781 -0.9375 9.625 -1.375 C 9.445312 -1.8125 9.28125 -2.273438 9.125 -2.765625 C 8.96875 -3.265625 8.789062 -3.734375 8.59375 -4.171875 C 8.382812 -4.617188 8.132812 -4.988281 7.84375 -5.28125 C 7.5625 -5.582031 7.1875 -5.765625 6.71875 -5.828125 C 6.53125 -5.847656 6.332031 -5.859375 6.125 -5.859375 C 5.925781 -5.859375 5.726562 -5.851562 5.53125 -5.84375 C 5.375 -5.832031 5.234375 -5.828125 5.109375 -5.828125 C 4.984375 -5.828125 4.867188 -5.832031 4.765625 -5.84375 C 4.742188 -5.5 4.734375 -5.148438 4.734375 -4.796875 C 4.742188 -4.453125 4.757812 -4.109375 4.78125 -3.765625 C 4.789062 -3.378906 4.800781 -2.988281 4.8125 -2.59375 C 4.832031 -2.207031 4.816406 -1.820312 4.765625 -1.4375 C 4.859375 -1.25 5.007812 -1.125 5.21875 -1.0625 C 5.4375 -1.007812 5.660156 -0.953125 5.890625 -0.890625 C 6.117188 -0.835938 6.28125 -0.726562 6.375 -0.5625 C 6.226562 -0.351562 5.972656 -0.222656 5.609375 -0.171875 C 5.253906 -0.128906 4.867188 -0.109375 4.453125 -0.109375 C 4.359375 -0.109375 4.25 -0.109375 4.125 -0.109375 C 4.007812 -0.109375 3.90625 -0.109375 3.8125 -0.109375 C 3.457031 -0.128906 3.132812 -0.132812 2.84375 -0.125 C 2.550781 -0.113281 2.316406 -0.078125 2.140625 -0.015625 C 2.035156 -0.285156 2.03125 -0.488281 2.125 -0.625 C 2.226562 -0.757812 2.363281 -0.867188 2.53125 -0.953125 C 2.695312 -1.046875 2.867188 -1.128906 3.046875 -1.203125 C 3.222656 -1.285156 3.34375 -1.40625 3.40625 -1.5625 C 3.375 -2.820312 3.347656 -4.03125 3.328125 -5.1875 C 3.316406 -6.34375 3.296875 -7.519531 3.265625 -8.71875 L 3.203125 -11.546875 C 3.109375 -11.585938 3.003906 -11.609375 2.890625 -11.609375 C 2.785156 -11.609375 2.679688 -11.609375 2.578125 -11.609375 C 2.453125 -11.597656 2.328125 -11.59375 2.203125 -11.59375 C 2.078125 -11.601562 1.960938 -11.65625 1.859375 -11.75 C 1.878906 -11.8125 1.878906 -11.859375 1.859375 -11.890625 C 1.835938 -11.929688 1.8125 -11.972656 1.78125 -12.015625 C 1.769531 -12.046875 1.757812 -12.082031 1.75 -12.125 C 1.738281 -12.175781 1.742188 -12.226562 1.765625 -12.28125 C 2.023438 -12.414062 2.316406 -12.492188 2.640625 -12.515625 C 2.960938 -12.535156 3.304688 -12.539062 3.671875 -12.53125 C 3.804688 -12.53125 3.945312 -12.53125 4.09375 -12.53125 C 4.238281 -12.53125 4.378906 -12.535156 4.515625 -12.546875 C 5.242188 -12.597656 5.957031 -12.617188 6.65625 -12.609375 C 7.351562 -12.609375 8 -12.546875 8.59375 -12.421875 C 9.195312 -12.304688 9.703125 -12.085938 10.109375 -11.765625 C 10.453125 -11.492188 10.710938 -11.140625 10.890625 -10.703125 C 11.078125 -10.265625 11.132812 -9.707031 11.0625 -9.03125 C 11.050781 -8.976562 11.03125 -8.925781 11 -8.875 C 10.96875 -8.820312 10.941406 -8.765625 10.921875 -8.703125 C 10.835938 -8.546875 10.765625 -8.390625 10.703125 -8.234375 C 10.640625 -8.078125 10.585938 -7.90625 10.546875 -7.71875 C 10.253906 -7.601562 10.003906 -7.441406 9.796875 -7.234375 C 9.597656 -7.023438 9.378906 -6.828125 9.140625 -6.640625 C 8.910156 -6.460938 8.601562 -6.359375 8.21875 -6.328125 C 8.757812 -6.003906 9.207031 -5.582031 9.5625 -5.0625 C 9.914062 -4.539062 10.222656 -3.976562 10.484375 -3.375 C 10.742188 -2.78125 11.003906 -2.175781 11.265625 -1.5625 C 11.328125 -1.519531 11.394531 -1.484375 11.46875 -1.453125 C 11.550781 -1.421875 11.628906 -1.382812 11.703125 -1.34375 C 11.960938 -1.238281 12.195312 -1.109375 12.40625 -0.953125 C 12.625 -0.796875 12.675781 -0.53125 12.5625 -0.15625 Z M 9.328125 -9.453125 C 9.328125 -9.742188 9.28125 -10.050781 9.1875 -10.375 C 9.09375 -10.695312 8.953125 -11.019531 8.765625 -11.34375 C 8.304688 -11.582031 7.820312 -11.710938 7.3125 -11.734375 C 6.800781 -11.765625 6.253906 -11.773438 5.671875 -11.765625 C 5.546875 -11.765625 5.414062 -11.757812 5.28125 -11.75 C 5.15625 -11.75 5.019531 -11.75 4.875 -11.75 C 4.757812 -11.625 4.703125 -11.457031 4.703125 -11.25 C 4.703125 -11.050781 4.710938 -10.835938 4.734375 -10.609375 C 4.742188 -10.515625 4.75 -10.421875 4.75 -10.328125 C 4.757812 -10.242188 4.765625 -10.160156 4.765625 -10.078125 C 4.765625 -9.867188 4.757812 -9.648438 4.75 -9.421875 C 4.738281 -9.191406 4.722656 -8.957031 4.703125 -8.71875 C 4.691406 -8.382812 4.6875 -8.039062 4.6875 -7.6875 C 4.6875 -7.34375 4.710938 -7 4.765625 -6.65625 C 5.378906 -6.550781 6.015625 -6.546875 6.671875 -6.640625 C 7.328125 -6.742188 7.859375 -6.957031 8.265625 -7.28125 C 8.753906 -7.664062 9.070312 -8.140625 9.21875 -8.703125 C 9.289062 -8.960938 9.328125 -9.210938 9.328125 -9.453125 Z M 9.328125 -9.453125 "/></g></g></g><g fill="#595858" fill-opacity="1"><g transform="translate(125.340362, 212.721608)"><g><path d="M 10.609375 -0.421875 L 10.46875 -0.28125 C 9.832031 -0.238281 9.179688 -0.210938 8.515625 -0.203125 C 7.859375 -0.191406 7.195312 -0.195312 6.53125 -0.21875 C 5.800781 -0.21875 5.078125 -0.210938 4.359375 -0.203125 C 3.640625 -0.191406 2.941406 -0.148438 2.265625 -0.078125 C 2.054688 -0.210938 1.960938 -0.347656 1.984375 -0.484375 C 2.015625 -0.617188 2.054688 -0.742188 2.109375 -0.859375 C 2.171875 -0.972656 2.203125 -1.050781 2.203125 -1.09375 C 2.285156 -1.144531 2.378906 -1.171875 2.484375 -1.171875 C 2.597656 -1.171875 2.710938 -1.171875 2.828125 -1.171875 C 2.890625 -1.171875 2.953125 -1.164062 3.015625 -1.15625 C 3.085938 -1.15625 3.160156 -1.160156 3.234375 -1.171875 C 3.296875 -2.109375 3.328125 -3.09375 3.328125 -4.125 C 3.328125 -5.164062 3.320312 -6.179688 3.3125 -7.171875 C 3.3125 -7.441406 3.304688 -7.703125 3.296875 -7.953125 C 3.285156 -8.210938 3.28125 -8.46875 3.28125 -8.71875 C 3.269531 -9.207031 3.265625 -9.671875 3.265625 -10.109375 C 3.273438 -10.546875 3.289062 -10.957031 3.3125 -11.34375 C 3.21875 -11.363281 3.117188 -11.375 3.015625 -11.375 C 2.921875 -11.382812 2.832031 -11.390625 2.75 -11.390625 C 2.582031 -11.390625 2.425781 -11.40625 2.28125 -11.4375 C 2.132812 -11.476562 2.007812 -11.566406 1.90625 -11.703125 C 1.914062 -11.742188 1.925781 -11.796875 1.9375 -11.859375 C 1.96875 -12.015625 2.007812 -12.164062 2.0625 -12.3125 C 2.125 -12.457031 2.242188 -12.523438 2.421875 -12.515625 C 2.910156 -12.492188 3.453125 -12.472656 4.046875 -12.453125 C 4.640625 -12.441406 5.226562 -12.4375 5.8125 -12.4375 C 6.40625 -12.4375 6.914062 -12.4375 7.34375 -12.4375 C 7.5 -12.4375 7.648438 -12.441406 7.796875 -12.453125 C 7.953125 -12.460938 8.109375 -12.472656 8.265625 -12.484375 C 8.703125 -12.523438 9.125 -12.546875 9.53125 -12.546875 C 9.9375 -12.546875 10.296875 -12.4375 10.609375 -12.21875 C 10.597656 -12.09375 10.59375 -11.941406 10.59375 -11.765625 C 10.601562 -11.597656 10.609375 -11.414062 10.609375 -11.21875 C 10.628906 -10.863281 10.632812 -10.5 10.625 -10.125 C 10.625 -9.757812 10.570312 -9.46875 10.46875 -9.25 C 10.238281 -9.195312 10.066406 -9.222656 9.953125 -9.328125 C 9.847656 -9.441406 9.78125 -9.59375 9.75 -9.78125 C 9.695312 -10.039062 9.660156 -10.332031 9.640625 -10.65625 C 9.617188 -10.976562 9.550781 -11.222656 9.4375 -11.390625 C 9.28125 -11.390625 9.109375 -11.390625 8.921875 -11.390625 C 8.734375 -11.390625 8.539062 -11.398438 8.34375 -11.421875 C 7.726562 -11.421875 7.078125 -11.421875 6.390625 -11.421875 C 5.703125 -11.421875 5.148438 -11.394531 4.734375 -11.34375 C 4.742188 -11.175781 4.75 -10.960938 4.75 -10.703125 C 4.75 -10.453125 4.742188 -10.164062 4.734375 -9.84375 C 4.734375 -9.664062 4.734375 -9.484375 4.734375 -9.296875 C 4.734375 -9.109375 4.734375 -8.914062 4.734375 -8.71875 C 4.734375 -8.414062 4.738281 -8.109375 4.75 -7.796875 C 4.769531 -7.492188 4.796875 -7.203125 4.828125 -6.921875 C 5.328125 -6.972656 5.84375 -7.003906 6.375 -7.015625 C 6.90625 -7.023438 7.425781 -7.046875 7.9375 -7.078125 C 8.101562 -7.148438 8.222656 -7.265625 8.296875 -7.421875 C 8.378906 -7.585938 8.453125 -7.757812 8.515625 -7.9375 C 8.578125 -8.125 8.660156 -8.285156 8.765625 -8.421875 C 8.847656 -8.472656 8.921875 -8.488281 8.984375 -8.46875 C 9.054688 -8.445312 9.128906 -8.414062 9.203125 -8.375 C 9.234375 -8.363281 9.265625 -8.347656 9.296875 -8.328125 C 9.335938 -8.304688 9.382812 -8.289062 9.4375 -8.28125 C 9.363281 -8 9.316406 -7.675781 9.296875 -7.3125 C 9.285156 -6.957031 9.285156 -6.597656 9.296875 -6.234375 C 9.296875 -5.921875 9.289062 -5.613281 9.28125 -5.3125 C 9.269531 -5.019531 9.242188 -4.769531 9.203125 -4.5625 C 8.910156 -4.53125 8.71875 -4.597656 8.625 -4.765625 C 8.539062 -4.941406 8.472656 -5.140625 8.421875 -5.359375 C 8.390625 -5.453125 8.359375 -5.539062 8.328125 -5.625 C 8.304688 -5.71875 8.28125 -5.800781 8.25 -5.875 C 7.65625 -5.96875 7.035156 -6.019531 6.390625 -6.03125 C 5.753906 -6.039062 5.203125 -5.941406 4.734375 -5.734375 C 4.753906 -5.023438 4.769531 -4.300781 4.78125 -3.5625 C 4.789062 -2.820312 4.773438 -2.050781 4.734375 -1.25 C 5.203125 -1.21875 5.71875 -1.195312 6.28125 -1.1875 C 6.84375 -1.175781 7.40625 -1.191406 7.96875 -1.234375 C 8.539062 -1.285156 9.054688 -1.367188 9.515625 -1.484375 C 9.648438 -1.722656 9.742188 -2 9.796875 -2.3125 C 9.847656 -2.625 9.921875 -2.921875 10.015625 -3.203125 C 10.117188 -3.484375 10.296875 -3.675781 10.546875 -3.78125 C 10.742188 -3.394531 10.832031 -2.96875 10.8125 -2.5 C 10.789062 -2.039062 10.75 -1.601562 10.6875 -1.1875 C 10.675781 -1.050781 10.660156 -0.914062 10.640625 -0.78125 C 10.617188 -0.65625 10.609375 -0.535156 10.609375 -0.421875 Z M 10.609375 -0.421875 "/></g></g></g><g fill="#595858" fill-opacity="1"><g transform="translate(138.216921, 212.721608)"><g><path d="M 14.21875 -12.25 C 14.207031 -11.976562 14.078125 -11.816406 13.828125 -11.765625 C 13.578125 -11.710938 13.304688 -11.6875 13.015625 -11.6875 C 12.910156 -11.65625 12.84375 -11.59375 12.8125 -11.5 C 12.78125 -11.40625 12.75 -11.300781 12.71875 -11.1875 C 12.695312 -11.082031 12.617188 -10.992188 12.484375 -10.921875 C 12.523438 -10.566406 12.554688 -10.203125 12.578125 -9.828125 C 12.597656 -9.460938 12.613281 -9.085938 12.625 -8.703125 C 12.632812 -8.265625 12.640625 -7.816406 12.640625 -7.359375 C 12.640625 -6.910156 12.640625 -6.457031 12.640625 -6 C 12.660156 -5.007812 12.675781 -4.035156 12.6875 -3.078125 C 12.707031 -2.128906 12.773438 -1.257812 12.890625 -0.46875 C 12.753906 -0.257812 12.535156 -0.140625 12.234375 -0.109375 C 11.941406 -0.0859375 11.738281 -0.144531 11.625 -0.28125 C 11.320312 -0.65625 11.03125 -1.070312 10.75 -1.53125 C 10.476562 -2 10.15625 -2.445312 9.78125 -2.875 C 9.09375 -3.695312 8.425781 -4.632812 7.78125 -5.6875 C 7.144531 -6.738281 6.503906 -7.75 5.859375 -8.71875 C 5.617188 -9.125 5.367188 -9.503906 5.109375 -9.859375 C 4.859375 -10.210938 4.601562 -10.550781 4.34375 -10.875 C 4.332031 -10.488281 4.316406 -10.125 4.296875 -9.78125 C 4.285156 -9.4375 4.28125 -9.082031 4.28125 -8.71875 C 4.28125 -8.25 4.285156 -7.757812 4.296875 -7.25 C 4.316406 -6.75 4.332031 -6.191406 4.34375 -5.578125 C 4.34375 -5.347656 4.335938 -5.109375 4.328125 -4.859375 C 4.328125 -4.609375 4.320312 -4.359375 4.3125 -4.109375 C 4.28125 -3.597656 4.257812 -3.113281 4.25 -2.65625 C 4.25 -2.207031 4.304688 -1.832031 4.421875 -1.53125 C 4.484375 -1.351562 4.597656 -1.21875 4.765625 -1.125 C 4.929688 -1.039062 5.101562 -0.960938 5.28125 -0.890625 C 5.457031 -0.816406 5.59375 -0.71875 5.6875 -0.59375 C 5.632812 -0.4375 5.523438 -0.332031 5.359375 -0.28125 C 5.203125 -0.238281 5.085938 -0.15625 5.015625 -0.03125 C 4.785156 -0.125 4.546875 -0.164062 4.296875 -0.15625 C 4.046875 -0.15625 3.800781 -0.132812 3.5625 -0.09375 C 3.289062 -0.0703125 3.03125 -0.0625 2.78125 -0.0625 C 2.539062 -0.0625 2.316406 -0.117188 2.109375 -0.234375 C 2.035156 -0.335938 2.007812 -0.421875 2.03125 -0.484375 C 2.050781 -0.554688 2.078125 -0.625 2.109375 -0.6875 C 2.140625 -0.738281 2.164062 -0.785156 2.1875 -0.828125 C 2.21875 -0.878906 2.234375 -0.9375 2.234375 -1 C 2.398438 -1.0625 2.570312 -1.113281 2.75 -1.15625 C 2.925781 -1.207031 3.101562 -1.257812 3.28125 -1.3125 C 3.394531 -2.289062 3.441406 -3.316406 3.421875 -4.390625 C 3.410156 -5.472656 3.375 -6.582031 3.3125 -7.71875 C 3.3125 -7.882812 3.304688 -8.050781 3.296875 -8.21875 C 3.285156 -8.382812 3.273438 -8.550781 3.265625 -8.71875 C 3.253906 -9.207031 3.238281 -9.691406 3.21875 -10.171875 C 3.195312 -10.648438 3.179688 -11.132812 3.171875 -11.625 C 3.015625 -11.570312 2.851562 -11.550781 2.6875 -11.5625 C 2.519531 -11.582031 2.378906 -11.625 2.265625 -11.6875 C 2.140625 -11.769531 2.0625 -11.890625 2.03125 -12.046875 C 2.007812 -12.203125 2.085938 -12.382812 2.265625 -12.59375 C 2.429688 -12.570312 2.597656 -12.5625 2.765625 -12.5625 C 2.929688 -12.5625 3.097656 -12.570312 3.265625 -12.59375 C 3.703125 -12.59375 4.128906 -12.578125 4.546875 -12.546875 C 4.960938 -12.523438 5.359375 -12.429688 5.734375 -12.265625 C 5.734375 -12.203125 5.710938 -12.15625 5.671875 -12.125 C 5.640625 -12.101562 5.609375 -12.078125 5.578125 -12.046875 C 5.472656 -12.015625 5.421875 -11.960938 5.421875 -11.890625 C 5.773438 -11.367188 6.132812 -10.84375 6.5 -10.3125 C 6.863281 -9.78125 7.226562 -9.25 7.59375 -8.71875 C 8.28125 -7.738281 8.972656 -6.753906 9.671875 -5.765625 C 10.367188 -4.773438 11.0625 -3.800781 11.75 -2.84375 C 11.71875 -3.832031 11.703125 -4.8125 11.703125 -5.78125 C 11.703125 -6.757812 11.691406 -7.734375 11.671875 -8.703125 C 11.640625 -9.660156 11.582031 -10.625 11.5 -11.59375 C 11.40625 -11.625 11.3125 -11.644531 11.21875 -11.65625 C 11.132812 -11.675781 11.046875 -11.6875 10.953125 -11.6875 C 10.785156 -11.707031 10.640625 -11.738281 10.515625 -11.78125 C 10.390625 -11.820312 10.316406 -11.925781 10.296875 -12.09375 C 10.285156 -12.3125 10.441406 -12.46875 10.765625 -12.5625 C 11.097656 -12.65625 11.484375 -12.707031 11.921875 -12.71875 C 12.253906 -12.726562 12.585938 -12.710938 12.921875 -12.671875 C 13.253906 -12.640625 13.539062 -12.582031 13.78125 -12.5 C 14.019531 -12.425781 14.164062 -12.34375 14.21875 -12.25 Z M 14.21875 -12.25 "/></g></g></g><g fill="#595858" fill-opacity="1"><g transform="translate(153.976293, 212.721608)"><g><path d="M 7.015625 -12.046875 C 6.953125 -11.859375 6.800781 -11.75 6.5625 -11.71875 C 6.320312 -11.695312 6.078125 -11.691406 5.828125 -11.703125 C 5.742188 -11.703125 5.664062 -11.703125 5.59375 -11.703125 C 5.519531 -11.703125 5.441406 -11.703125 5.359375 -11.703125 C 5.304688 -11.660156 5.320312 -11.566406 5.40625 -11.421875 C 5.425781 -11.367188 5.445312 -11.3125 5.46875 -11.25 C 5.488281 -11.195312 5.5 -11.144531 5.5 -11.09375 C 5.445312 -11.039062 5.40625 -10.976562 5.375 -10.90625 C 5.351562 -10.832031 5.328125 -10.742188 5.296875 -10.640625 C 5.285156 -10.328125 5.28125 -10.007812 5.28125 -9.6875 C 5.28125 -9.375 5.273438 -9.050781 5.265625 -8.71875 C 5.253906 -7.488281 5.242188 -6.242188 5.234375 -4.984375 C 5.234375 -3.734375 5.234375 -2.488281 5.234375 -1.25 C 5.523438 -1.238281 5.84375 -1.164062 6.1875 -1.03125 C 6.53125 -0.90625 6.78125 -0.707031 6.9375 -0.4375 C 6.613281 -0.25 6.242188 -0.144531 5.828125 -0.125 C 5.410156 -0.113281 4.976562 -0.125 4.53125 -0.15625 C 4.257812 -0.164062 3.992188 -0.171875 3.734375 -0.171875 C 3.472656 -0.179688 3.222656 -0.171875 2.984375 -0.140625 C 2.898438 -0.117188 2.835938 -0.0859375 2.796875 -0.046875 C 2.765625 -0.00390625 2.726562 0.0390625 2.6875 0.09375 C 2.65625 0.175781 2.601562 0.242188 2.53125 0.296875 C 2.46875 0.359375 2.367188 0.367188 2.234375 0.328125 C 2.097656 0.148438 2.046875 -0.0234375 2.078125 -0.203125 C 2.117188 -0.390625 2.191406 -0.5625 2.296875 -0.71875 C 2.398438 -0.875 2.5 -1.003906 2.59375 -1.109375 C 2.65625 -1.109375 2.722656 -1.109375 2.796875 -1.109375 C 2.867188 -1.109375 2.941406 -1.109375 3.015625 -1.109375 C 3.171875 -1.109375 3.320312 -1.109375 3.46875 -1.109375 C 3.625 -1.109375 3.757812 -1.132812 3.875 -1.1875 C 3.863281 -2.34375 3.859375 -3.570312 3.859375 -4.875 C 3.859375 -6.175781 3.847656 -7.457031 3.828125 -8.71875 C 3.816406 -9.71875 3.773438 -10.679688 3.703125 -11.609375 C 3.617188 -11.628906 3.523438 -11.644531 3.421875 -11.65625 C 3.316406 -11.664062 3.207031 -11.671875 3.09375 -11.671875 C 2.914062 -11.671875 2.742188 -11.675781 2.578125 -11.6875 C 2.410156 -11.695312 2.265625 -11.753906 2.140625 -11.859375 C 2.109375 -11.960938 2.109375 -12.039062 2.140625 -12.09375 C 2.171875 -12.144531 2.207031 -12.195312 2.25 -12.25 C 2.289062 -12.28125 2.320312 -12.316406 2.34375 -12.359375 C 2.375 -12.410156 2.390625 -12.46875 2.390625 -12.53125 C 2.785156 -12.53125 3.207031 -12.546875 3.65625 -12.578125 C 4.113281 -12.617188 4.5625 -12.640625 5 -12.640625 C 5.4375 -12.640625 5.832031 -12.601562 6.1875 -12.53125 C 6.539062 -12.457031 6.816406 -12.296875 7.015625 -12.046875 Z M 7.015625 -12.046875 "/></g></g></g><g fill="#595858" fill-opacity="1"><g transform="translate(163.009102, 212.721608)"><g><path d="M 12.1875 -11.953125 C 12.039062 -11.773438 11.960938 -11.554688 11.953125 -11.296875 C 11.941406 -11.046875 11.945312 -10.785156 11.96875 -10.515625 C 11.96875 -10.484375 11.976562 -10.4375 12 -10.375 C 12.019531 -10.082031 12.023438 -9.789062 12.015625 -9.5 C 12.015625 -9.21875 11.925781 -8.976562 11.75 -8.78125 C 11.5 -8.8125 11.316406 -8.910156 11.203125 -9.078125 C 11.097656 -9.242188 11.019531 -9.441406 10.96875 -9.671875 C 10.914062 -9.941406 10.875 -10.222656 10.84375 -10.515625 C 10.8125 -10.816406 10.742188 -11.070312 10.640625 -11.28125 C 10.222656 -11.394531 9.707031 -11.46875 9.09375 -11.5 C 8.488281 -11.53125 7.957031 -11.53125 7.5 -11.5 C 7.5 -11.039062 7.5 -10.582031 7.5 -10.125 C 7.5 -9.664062 7.488281 -9.195312 7.46875 -8.71875 C 7.46875 -8.476562 7.460938 -8.238281 7.453125 -8 C 7.453125 -7.769531 7.453125 -7.53125 7.453125 -7.28125 C 7.441406 -6.28125 7.4375 -5.273438 7.4375 -4.265625 C 7.4375 -3.265625 7.457031 -2.28125 7.5 -1.3125 C 7.632812 -1.195312 7.804688 -1.113281 8.015625 -1.0625 C 8.234375 -1.019531 8.4375 -0.960938 8.625 -0.890625 C 8.820312 -0.816406 8.953125 -0.679688 9.015625 -0.484375 C 8.953125 -0.316406 8.796875 -0.203125 8.546875 -0.140625 C 8.296875 -0.0859375 8.003906 -0.0625 7.671875 -0.0625 C 7.335938 -0.0625 7.003906 -0.0703125 6.671875 -0.09375 C 6.503906 -0.09375 6.34375 -0.09375 6.1875 -0.09375 C 6.03125 -0.101562 5.890625 -0.109375 5.765625 -0.109375 C 5.703125 -0.109375 5.640625 -0.101562 5.578125 -0.09375 C 5.515625 -0.09375 5.441406 -0.09375 5.359375 -0.09375 C 5.117188 -0.0703125 4.890625 -0.0703125 4.671875 -0.09375 C 4.453125 -0.125 4.335938 -0.269531 4.328125 -0.53125 C 4.328125 -0.632812 4.363281 -0.726562 4.4375 -0.8125 C 4.519531 -0.90625 4.582031 -1 4.625 -1.09375 C 4.84375 -1 5.09375 -1.03125 5.375 -1.1875 C 5.65625 -1.34375 5.859375 -1.535156 5.984375 -1.765625 C 5.960938 -2.441406 5.953125 -3.113281 5.953125 -3.78125 C 5.953125 -4.445312 5.953125 -5.109375 5.953125 -5.765625 C 5.953125 -6.265625 5.953125 -6.753906 5.953125 -7.234375 C 5.953125 -7.722656 5.953125 -8.21875 5.953125 -8.71875 C 5.953125 -9.632812 5.9375 -10.5625 5.90625 -11.5 C 5.414062 -11.582031 4.90625 -11.59375 4.375 -11.53125 C 3.84375 -11.46875 3.367188 -11.40625 2.953125 -11.34375 C 2.890625 -11.320312 2.832031 -11.304688 2.78125 -11.296875 C 2.726562 -11.296875 2.679688 -11.289062 2.640625 -11.28125 C 2.609375 -11.132812 2.582031 -10.984375 2.5625 -10.828125 C 2.539062 -10.679688 2.53125 -10.53125 2.53125 -10.375 C 2.507812 -10.039062 2.472656 -9.726562 2.421875 -9.4375 C 2.367188 -9.144531 2.234375 -8.925781 2.015625 -8.78125 C 1.890625 -8.769531 1.796875 -8.785156 1.734375 -8.828125 C 1.671875 -8.867188 1.601562 -8.925781 1.53125 -9 C 1.507812 -9.019531 1.484375 -9.039062 1.453125 -9.0625 C 1.421875 -9.09375 1.382812 -9.117188 1.34375 -9.140625 C 1.414062 -9.671875 1.453125 -10.226562 1.453125 -10.8125 C 1.453125 -11.394531 1.535156 -11.894531 1.703125 -12.3125 C 2.328125 -12.425781 3.019531 -12.488281 3.78125 -12.5 C 4.550781 -12.507812 5.300781 -12.503906 6.03125 -12.484375 C 6.257812 -12.472656 6.484375 -12.46875 6.703125 -12.46875 C 6.921875 -12.46875 7.132812 -12.46875 7.34375 -12.46875 C 7.5625 -12.46875 7.78125 -12.472656 8 -12.484375 C 8.226562 -12.503906 8.453125 -12.519531 8.671875 -12.53125 C 9.359375 -12.570312 10.015625 -12.578125 10.640625 -12.546875 C 11.273438 -12.523438 11.789062 -12.328125 12.1875 -11.953125 Z M 12.1875 -11.953125 "/></g></g></g><g fill="#595858" fill-opacity="1"><g transform="translate(176.270034, 212.721608)"><g><path d="M 13.21875 -11.875 C 12.78125 -11.851562 12.410156 -11.757812 12.109375 -11.59375 C 11.816406 -11.4375 11.550781 -11.226562 11.3125 -10.96875 C 11.03125 -10.664062 10.78125 -10.3125 10.5625 -9.90625 C 10.351562 -9.5 10.140625 -9.097656 9.921875 -8.703125 C 9.816406 -8.503906 9.6875 -8.300781 9.53125 -8.09375 C 9.375 -7.875 9.210938 -7.679688 9.046875 -7.515625 C 8.878906 -7.347656 8.734375 -7.160156 8.609375 -6.953125 C 8.484375 -6.734375 8.335938 -6.519531 8.171875 -6.3125 C 8.003906 -6.101562 7.847656 -5.941406 7.703125 -5.828125 C 7.753906 -5.523438 7.78125 -5.1875 7.78125 -4.8125 C 7.78125 -4.4375 7.773438 -4.050781 7.765625 -3.65625 C 7.765625 -3.21875 7.765625 -2.789062 7.765625 -2.375 C 7.765625 -1.96875 7.796875 -1.613281 7.859375 -1.3125 C 7.910156 -1.257812 7.96875 -1.238281 8.03125 -1.25 C 8.09375 -1.257812 8.140625 -1.296875 8.171875 -1.359375 C 8.285156 -1.234375 8.425781 -1.132812 8.59375 -1.0625 C 8.757812 -0.988281 8.910156 -0.914062 9.046875 -0.84375 C 9.203125 -0.757812 9.304688 -0.640625 9.359375 -0.484375 C 9.421875 -0.335938 9.347656 -0.179688 9.140625 -0.015625 C 8.835938 -0.0546875 8.53125 -0.078125 8.21875 -0.078125 C 7.90625 -0.078125 7.585938 -0.078125 7.265625 -0.078125 C 6.878906 -0.0664062 6.488281 -0.0625 6.09375 -0.0625 C 5.707031 -0.0703125 5.3125 -0.109375 4.90625 -0.171875 C 4.882812 -0.503906 4.960938 -0.738281 5.140625 -0.875 C 5.328125 -1.019531 5.53125 -1.144531 5.75 -1.25 C 5.863281 -1.3125 5.976562 -1.367188 6.09375 -1.421875 C 6.207031 -1.484375 6.300781 -1.566406 6.375 -1.671875 C 6.375 -1.773438 6.378906 -1.925781 6.390625 -2.125 C 6.398438 -2.320312 6.40625 -2.550781 6.40625 -2.8125 C 6.414062 -3.144531 6.421875 -3.5 6.421875 -3.875 C 6.429688 -4.25 6.429688 -4.601562 6.421875 -4.9375 C 6.421875 -5.28125 6.40625 -5.550781 6.375 -5.75 C 6.34375 -6 6.226562 -6.253906 6.03125 -6.515625 C 5.84375 -6.773438 5.648438 -7.023438 5.453125 -7.265625 C 5.285156 -7.492188 5.117188 -7.734375 4.953125 -7.984375 C 4.785156 -8.234375 4.617188 -8.476562 4.453125 -8.71875 C 4.222656 -9.082031 3.992188 -9.441406 3.765625 -9.796875 C 3.546875 -10.148438 3.328125 -10.488281 3.109375 -10.8125 C 3.085938 -10.914062 3.023438 -10.976562 2.921875 -11 C 2.816406 -11.03125 2.734375 -11.070312 2.671875 -11.125 C 2.671875 -11.226562 2.664062 -11.328125 2.65625 -11.421875 C 2.644531 -11.515625 2.613281 -11.585938 2.5625 -11.640625 C 2.476562 -11.660156 2.394531 -11.671875 2.3125 -11.671875 C 2.226562 -11.679688 2.144531 -11.6875 2.0625 -11.6875 C 1.957031 -11.6875 1.847656 -11.6875 1.734375 -11.6875 C 1.628906 -11.695312 1.515625 -11.71875 1.390625 -11.75 C 1.359375 -11.769531 1.335938 -11.800781 1.328125 -11.84375 C 1.316406 -11.894531 1.273438 -11.925781 1.203125 -11.9375 C 1.171875 -12.113281 1.179688 -12.238281 1.234375 -12.3125 C 1.285156 -12.394531 1.347656 -12.46875 1.421875 -12.53125 C 1.460938 -12.570312 1.488281 -12.597656 1.5 -12.609375 C 1.757812 -12.566406 2.039062 -12.550781 2.34375 -12.5625 C 2.65625 -12.582031 2.960938 -12.601562 3.265625 -12.625 C 3.421875 -12.632812 3.570312 -12.644531 3.71875 -12.65625 C 3.875 -12.675781 4.023438 -12.6875 4.171875 -12.6875 C 4.566406 -12.695312 4.90625 -12.648438 5.1875 -12.546875 C 5.476562 -12.441406 5.671875 -12.238281 5.765625 -11.9375 C 5.585938 -11.8125 5.359375 -11.726562 5.078125 -11.6875 C 4.804688 -11.65625 4.523438 -11.640625 4.234375 -11.640625 C 4.484375 -11.171875 4.773438 -10.6875 5.109375 -10.1875 C 5.453125 -9.695312 5.8125 -9.207031 6.1875 -8.71875 C 6.40625 -8.457031 6.613281 -8.1875 6.8125 -7.90625 C 7.019531 -7.632812 7.222656 -7.367188 7.421875 -7.109375 C 7.609375 -7.378906 7.796875 -7.648438 7.984375 -7.921875 C 8.171875 -8.191406 8.359375 -8.457031 8.546875 -8.71875 C 8.878906 -9.207031 9.210938 -9.691406 9.546875 -10.171875 C 9.878906 -10.648438 10.203125 -11.140625 10.515625 -11.640625 C 10.410156 -11.660156 10.273438 -11.660156 10.109375 -11.640625 C 9.941406 -11.628906 9.765625 -11.617188 9.578125 -11.609375 C 9.472656 -11.597656 9.367188 -11.585938 9.265625 -11.578125 C 9.160156 -11.566406 9.0625 -11.5625 8.96875 -11.5625 C 8.78125 -11.664062 8.707031 -11.84375 8.75 -12.09375 C 8.800781 -12.34375 8.910156 -12.515625 9.078125 -12.609375 C 9.328125 -12.578125 9.585938 -12.566406 9.859375 -12.578125 C 10.140625 -12.597656 10.421875 -12.613281 10.703125 -12.625 C 10.867188 -12.632812 11.035156 -12.644531 11.203125 -12.65625 C 11.367188 -12.675781 11.53125 -12.6875 11.6875 -12.6875 C 12.0625 -12.6875 12.390625 -12.628906 12.671875 -12.515625 C 12.953125 -12.410156 13.132812 -12.195312 13.21875 -11.875 Z M 13.21875 -11.875 "/></g></g></g><g fill="#595858" fill-opacity="1"><g transform="translate(190.491904, 212.721608)"><g/></g></g><g fill="#595858" fill-opacity="1"><g transform="translate(195.296591, 212.721608)"><g><path d="M 12.1875 -11.953125 C 12.039062 -11.773438 11.960938 -11.554688 11.953125 -11.296875 C 11.941406 -11.046875 11.945312 -10.785156 11.96875 -10.515625 C 11.96875 -10.484375 11.976562 -10.4375 12 -10.375 C 12.019531 -10.082031 12.023438 -9.789062 12.015625 -9.5 C 12.015625 -9.21875 11.925781 -8.976562 11.75 -8.78125 C 11.5 -8.8125 11.316406 -8.910156 11.203125 -9.078125 C 11.097656 -9.242188 11.019531 -9.441406 10.96875 -9.671875 C 10.914062 -9.941406 10.875 -10.222656 10.84375 -10.515625 C 10.8125 -10.816406 10.742188 -11.070312 10.640625 -11.28125 C 10.222656 -11.394531 9.707031 -11.46875 9.09375 -11.5 C 8.488281 -11.53125 7.957031 -11.53125 7.5 -11.5 C 7.5 -11.039062 7.5 -10.582031 7.5 -10.125 C 7.5 -9.664062 7.488281 -9.195312 7.46875 -8.71875 C 7.46875 -8.476562 7.460938 -8.238281 7.453125 -8 C 7.453125 -7.769531 7.453125 -7.53125 7.453125 -7.28125 C 7.441406 -6.28125 7.4375 -5.273438 7.4375 -4.265625 C 7.4375 -3.265625 7.457031 -2.28125 7.5 -1.3125 C 7.632812 -1.195312 7.804688 -1.113281 8.015625 -1.0625 C 8.234375 -1.019531 8.4375 -0.960938 8.625 -0.890625 C 8.820312 -0.816406 8.953125 -0.679688 9.015625 -0.484375 C 8.953125 -0.316406 8.796875 -0.203125 8.546875 -0.140625 C 8.296875 -0.0859375 8.003906 -0.0625 7.671875 -0.0625 C 7.335938 -0.0625 7.003906 -0.0703125 6.671875 -0.09375 C 6.503906 -0.09375 6.34375 -0.09375 6.1875 -0.09375 C 6.03125 -0.101562 5.890625 -0.109375 5.765625 -0.109375 C 5.703125 -0.109375 5.640625 -0.101562 5.578125 -0.09375 C 5.515625 -0.09375 5.441406 -0.09375 5.359375 -0.09375 C 5.117188 -0.0703125 4.890625 -0.0703125 4.671875 -0.09375 C 4.453125 -0.125 4.335938 -0.269531 4.328125 -0.53125 C 4.328125 -0.632812 4.363281 -0.726562 4.4375 -0.8125 C 4.519531 -0.90625 4.582031 -1 4.625 -1.09375 C 4.84375 -1 5.09375 -1.03125 5.375 -1.1875 C 5.65625 -1.34375 5.859375 -1.535156 5.984375 -1.765625 C 5.960938 -2.441406 5.953125 -3.113281 5.953125 -3.78125 C 5.953125 -4.445312 5.953125 -5.109375 5.953125 -5.765625 C 5.953125 -6.265625 5.953125 -6.753906 5.953125 -7.234375 C 5.953125 -7.722656 5.953125 -8.21875 5.953125 -8.71875 C 5.953125 -9.632812 5.9375 -10.5625 5.90625 -11.5 C 5.414062 -11.582031 4.90625 -11.59375 4.375 -11.53125 C 3.84375 -11.46875 3.367188 -11.40625 2.953125 -11.34375 C 2.890625 -11.320312 2.832031 -11.304688 2.78125 -11.296875 C 2.726562 -11.296875 2.679688 -11.289062 2.640625 -11.28125 C 2.609375 -11.132812 2.582031 -10.984375 2.5625 -10.828125 C 2.539062 -10.679688 2.53125 -10.53125 2.53125 -10.375 C 2.507812 -10.039062 2.472656 -9.726562 2.421875 -9.4375 C 2.367188 -9.144531 2.234375 -8.925781 2.015625 -8.78125 C 1.890625 -8.769531 1.796875 -8.785156 1.734375 -8.828125 C 1.671875 -8.867188 1.601562 -8.925781 1.53125 -9 C 1.507812 -9.019531 1.484375 -9.039062 1.453125 -9.0625 C 1.421875 -9.09375 1.382812 -9.117188 1.34375 -9.140625 C 1.414062 -9.671875 1.453125 -10.226562 1.453125 -10.8125 C 1.453125 -11.394531 1.535156 -11.894531 1.703125 -12.3125 C 2.328125 -12.425781 3.019531 -12.488281 3.78125 -12.5 C 4.550781 -12.507812 5.300781 -12.503906 6.03125 -12.484375 C 6.257812 -12.472656 6.484375 -12.46875 6.703125 -12.46875 C 6.921875 -12.46875 7.132812 -12.46875 7.34375 -12.46875 C 7.5625 -12.46875 7.78125 -12.472656 8 -12.484375 C 8.226562 -12.503906 8.453125 -12.519531 8.671875 -12.53125 C 9.359375 -12.570312 10.015625 -12.578125 10.640625 -12.546875 C 11.273438 -12.523438 11.789062 -12.328125 12.1875 -11.953125 Z M 12.1875 -11.953125 "/></g></g></g><g fill="#595858" fill-opacity="1"><g transform="translate(208.557523, 212.721608)"><g><path d="M 12.5625 -0.15625 C 12.144531 -0.0390625 11.753906 -0.00390625 11.390625 -0.046875 C 11.023438 -0.0859375 10.65625 -0.15625 10.28125 -0.25 C 10.019531 -0.5625 9.800781 -0.9375 9.625 -1.375 C 9.445312 -1.8125 9.28125 -2.273438 9.125 -2.765625 C 8.96875 -3.265625 8.789062 -3.734375 8.59375 -4.171875 C 8.382812 -4.617188 8.132812 -4.988281 7.84375 -5.28125 C 7.5625 -5.582031 7.1875 -5.765625 6.71875 -5.828125 C 6.53125 -5.847656 6.332031 -5.859375 6.125 -5.859375 C 5.925781 -5.859375 5.726562 -5.851562 5.53125 -5.84375 C 5.375 -5.832031 5.234375 -5.828125 5.109375 -5.828125 C 4.984375 -5.828125 4.867188 -5.832031 4.765625 -5.84375 C 4.742188 -5.5 4.734375 -5.148438 4.734375 -4.796875 C 4.742188 -4.453125 4.757812 -4.109375 4.78125 -3.765625 C 4.789062 -3.378906 4.800781 -2.988281 4.8125 -2.59375 C 4.832031 -2.207031 4.816406 -1.820312 4.765625 -1.4375 C 4.859375 -1.25 5.007812 -1.125 5.21875 -1.0625 C 5.4375 -1.007812 5.660156 -0.953125 5.890625 -0.890625 C 6.117188 -0.835938 6.28125 -0.726562 6.375 -0.5625 C 6.226562 -0.351562 5.972656 -0.222656 5.609375 -0.171875 C 5.253906 -0.128906 4.867188 -0.109375 4.453125 -0.109375 C 4.359375 -0.109375 4.25 -0.109375 4.125 -0.109375 C 4.007812 -0.109375 3.90625 -0.109375 3.8125 -0.109375 C 3.457031 -0.128906 3.132812 -0.132812 2.84375 -0.125 C 2.550781 -0.113281 2.316406 -0.078125 2.140625 -0.015625 C 2.035156 -0.285156 2.03125 -0.488281 2.125 -0.625 C 2.226562 -0.757812 2.363281 -0.867188 2.53125 -0.953125 C 2.695312 -1.046875 2.867188 -1.128906 3.046875 -1.203125 C 3.222656 -1.285156 3.34375 -1.40625 3.40625 -1.5625 C 3.375 -2.820312 3.347656 -4.03125 3.328125 -5.1875 C 3.316406 -6.34375 3.296875 -7.519531 3.265625 -8.71875 L 3.203125 -11.546875 C 3.109375 -11.585938 3.003906 -11.609375 2.890625 -11.609375 C 2.785156 -11.609375 2.679688 -11.609375 2.578125 -11.609375 C 2.453125 -11.597656 2.328125 -11.59375 2.203125 -11.59375 C 2.078125 -11.601562 1.960938 -11.65625 1.859375 -11.75 C 1.878906 -11.8125 1.878906 -11.859375 1.859375 -11.890625 C 1.835938 -11.929688 1.8125 -11.972656 1.78125 -12.015625 C 1.769531 -12.046875 1.757812 -12.082031 1.75 -12.125 C 1.738281 -12.175781 1.742188 -12.226562 1.765625 -12.28125 C 2.023438 -12.414062 2.316406 -12.492188 2.640625 -12.515625 C 2.960938 -12.535156 3.304688 -12.539062 3.671875 -12.53125 C 3.804688 -12.53125 3.945312 -12.53125 4.09375 -12.53125 C 4.238281 -12.53125 4.378906 -12.535156 4.515625 -12.546875 C 5.242188 -12.597656 5.957031 -12.617188 6.65625 -12.609375 C 7.351562 -12.609375 8 -12.546875 8.59375 -12.421875 C 9.195312 -12.304688 9.703125 -12.085938 10.109375 -11.765625 C 10.453125 -11.492188 10.710938 -11.140625 10.890625 -10.703125 C 11.078125 -10.265625 11.132812 -9.707031 11.0625 -9.03125 C 11.050781 -8.976562 11.03125 -8.925781 11 -8.875 C 10.96875 -8.820312 10.941406 -8.765625 10.921875 -8.703125 C 10.835938 -8.546875 10.765625 -8.390625 10.703125 -8.234375 C 10.640625 -8.078125 10.585938 -7.90625 10.546875 -7.71875 C 10.253906 -7.601562 10.003906 -7.441406 9.796875 -7.234375 C 9.597656 -7.023438 9.378906 -6.828125 9.140625 -6.640625 C 8.910156 -6.460938 8.601562 -6.359375 8.21875 -6.328125 C 8.757812 -6.003906 9.207031 -5.582031 9.5625 -5.0625 C 9.914062 -4.539062 10.222656 -3.976562 10.484375 -3.375 C 10.742188 -2.78125 11.003906 -2.175781 11.265625 -1.5625 C 11.328125 -1.519531 11.394531 -1.484375 11.46875 -1.453125 C 11.550781 -1.421875 11.628906 -1.382812 11.703125 -1.34375 C 11.960938 -1.238281 12.195312 -1.109375 12.40625 -0.953125 C 12.625 -0.796875 12.675781 -0.53125 12.5625 -0.15625 Z M 9.328125 -9.453125 C 9.328125 -9.742188 9.28125 -10.050781 9.1875 -10.375 C 9.09375 -10.695312 8.953125 -11.019531 8.765625 -11.34375 C 8.304688 -11.582031 7.820312 -11.710938 7.3125 -11.734375 C 6.800781 -11.765625 6.253906 -11.773438 5.671875 -11.765625 C 5.546875 -11.765625 5.414062 -11.757812 5.28125 -11.75 C 5.15625 -11.75 5.019531 -11.75 4.875 -11.75 C 4.757812 -11.625 4.703125 -11.457031 4.703125 -11.25 C 4.703125 -11.050781 4.710938 -10.835938 4.734375 -10.609375 C 4.742188 -10.515625 4.75 -10.421875 4.75 -10.328125 C 4.757812 -10.242188 4.765625 -10.160156 4.765625 -10.078125 C 4.765625 -9.867188 4.757812 -9.648438 4.75 -9.421875 C 4.738281 -9.191406 4.722656 -8.957031 4.703125 -8.71875 C 4.691406 -8.382812 4.6875 -8.039062 4.6875 -7.6875 C 4.6875 -7.34375 4.710938 -7 4.765625 -6.65625 C 5.378906 -6.550781 6.015625 -6.546875 6.671875 -6.640625 C 7.328125 -6.742188 7.859375 -6.957031 8.265625 -7.28125 C 8.753906 -7.664062 9.070312 -8.140625 9.21875 -8.703125 C 9.289062 -8.960938 9.328125 -9.210938 9.328125 -9.453125 Z M 9.328125 -9.453125 "/></g></g></g><g fill="#595858" fill-opacity="1"><g transform="translate(222.010647, 212.721608)"><g><path d="M 13.3125 -0.5625 C 13.289062 -0.425781 13.15625 -0.328125 12.90625 -0.265625 C 12.664062 -0.203125 12.378906 -0.164062 12.046875 -0.15625 C 11.691406 -0.144531 11.316406 -0.15625 10.921875 -0.1875 C 10.523438 -0.21875 10.15625 -0.25 9.8125 -0.28125 C 9.46875 -0.320312 9.210938 -0.359375 9.046875 -0.390625 C 8.929688 -0.640625 8.925781 -0.835938 9.03125 -0.984375 C 9.132812 -1.128906 9.285156 -1.242188 9.484375 -1.328125 C 9.691406 -1.410156 9.890625 -1.46875 10.078125 -1.5 C 10.109375 -1.675781 10.097656 -1.898438 10.046875 -2.171875 C 9.992188 -2.453125 9.921875 -2.742188 9.828125 -3.046875 C 9.734375 -3.347656 9.648438 -3.617188 9.578125 -3.859375 C 9.523438 -4.003906 9.476562 -4.132812 9.4375 -4.25 C 9.394531 -4.363281 9.367188 -4.453125 9.359375 -4.515625 C 8.648438 -4.546875 7.875 -4.546875 7.03125 -4.515625 C 6.195312 -4.492188 5.460938 -4.460938 4.828125 -4.421875 C 4.765625 -4.304688 4.679688 -4.125 4.578125 -3.875 C 4.472656 -3.625 4.359375 -3.347656 4.234375 -3.046875 C 4.117188 -2.753906 4 -2.472656 3.875 -2.203125 C 3.757812 -1.941406 3.664062 -1.726562 3.59375 -1.5625 C 3.65625 -1.414062 3.800781 -1.328125 4.03125 -1.296875 C 4.257812 -1.273438 4.484375 -1.234375 4.703125 -1.171875 C 4.898438 -1.117188 5.054688 -1.023438 5.171875 -0.890625 C 5.285156 -0.753906 5.3125 -0.535156 5.25 -0.234375 C 4.925781 -0.171875 4.582031 -0.140625 4.21875 -0.140625 C 3.863281 -0.148438 3.515625 -0.164062 3.171875 -0.1875 C 2.796875 -0.21875 2.4375 -0.234375 2.09375 -0.234375 C 1.757812 -0.234375 1.457031 -0.1875 1.1875 -0.09375 C 1.125 -0.1875 1.066406 -0.285156 1.015625 -0.390625 C 0.972656 -0.503906 0.90625 -0.585938 0.8125 -0.640625 C 0.820312 -0.828125 0.863281 -0.976562 0.9375 -1.09375 C 1.019531 -1.207031 1.078125 -1.34375 1.109375 -1.5 C 1.429688 -1.46875 1.710938 -1.5 1.953125 -1.59375 C 2.191406 -1.695312 2.394531 -1.835938 2.5625 -2.015625 C 2.84375 -2.304688 3.054688 -2.679688 3.203125 -3.140625 C 3.347656 -3.597656 3.503906 -4.023438 3.671875 -4.421875 C 3.941406 -5.085938 4.207031 -5.785156 4.46875 -6.515625 C 4.726562 -7.253906 5 -7.988281 5.28125 -8.71875 C 5.5625 -9.476562 5.847656 -10.207031 6.140625 -10.90625 C 6.441406 -11.613281 6.738281 -12.257812 7.03125 -12.84375 C 7.207031 -12.875 7.429688 -12.894531 7.703125 -12.90625 C 7.972656 -12.925781 8.191406 -12.90625 8.359375 -12.84375 C 8.285156 -12.632812 8.265625 -12.457031 8.296875 -12.3125 C 8.328125 -12.175781 8.367188 -12.050781 8.421875 -11.9375 C 8.472656 -11.820312 8.515625 -11.703125 8.546875 -11.578125 C 8.578125 -11.453125 8.5625 -11.300781 8.5 -11.125 C 8.632812 -10.769531 8.78125 -10.382812 8.9375 -9.96875 C 9.09375 -9.5625 9.253906 -9.140625 9.421875 -8.703125 C 9.753906 -7.804688 10.082031 -6.878906 10.40625 -5.921875 C 10.726562 -4.960938 11.019531 -4.054688 11.28125 -3.203125 C 11.320312 -3.078125 11.367188 -2.914062 11.421875 -2.71875 C 11.484375 -2.53125 11.539062 -2.378906 11.59375 -2.265625 C 11.625 -2.203125 11.664062 -2.140625 11.71875 -2.078125 C 11.769531 -2.023438 11.820312 -1.972656 11.875 -1.921875 C 11.96875 -1.828125 12.046875 -1.738281 12.109375 -1.65625 C 12.171875 -1.570312 12.191406 -1.460938 12.171875 -1.328125 C 12.203125 -1.316406 12.257812 -1.300781 12.34375 -1.28125 C 12.59375 -1.226562 12.832031 -1.15625 13.0625 -1.0625 C 13.300781 -0.976562 13.382812 -0.8125 13.3125 -0.5625 Z M 8.953125 -5.6875 C 8.867188 -5.925781 8.742188 -6.332031 8.578125 -6.90625 C 8.410156 -7.488281 8.21875 -8.09375 8 -8.71875 C 7.863281 -9.09375 7.722656 -9.445312 7.578125 -9.78125 C 7.441406 -10.125 7.304688 -10.429688 7.171875 -10.703125 L 6.4375 -8.71875 C 6.28125 -8.300781 6.117188 -7.875 5.953125 -7.4375 C 5.785156 -7 5.640625 -6.609375 5.515625 -6.265625 C 5.398438 -5.921875 5.3125 -5.671875 5.25 -5.515625 C 5.414062 -5.523438 5.671875 -5.53125 6.015625 -5.53125 C 6.359375 -5.539062 6.722656 -5.550781 7.109375 -5.5625 C 7.503906 -5.570312 7.867188 -5.582031 8.203125 -5.59375 C 8.546875 -5.613281 8.796875 -5.644531 8.953125 -5.6875 Z M 8.953125 -5.6875 "/></g></g></g><g fill="#595858" fill-opacity="1"><g transform="translate(236.194076, 212.721608)"><g><path d="M 13.375 -12.0625 C 13.09375 -11.78125 12.769531 -11.535156 12.40625 -11.328125 C 12.039062 -11.128906 11.726562 -10.867188 11.46875 -10.546875 C 11.394531 -10.234375 11.316406 -9.921875 11.234375 -9.609375 C 11.160156 -9.296875 11.082031 -8.992188 11 -8.703125 C 10.59375 -7.335938 10.144531 -6.015625 9.65625 -4.734375 C 9.164062 -3.453125 8.722656 -2.09375 8.328125 -0.65625 C 8.191406 -0.53125 8.082031 -0.382812 8 -0.21875 C 7.914062 -0.0625 7.816406 0.0859375 7.703125 0.234375 C 7.566406 0.304688 7.429688 0.328125 7.296875 0.296875 C 7.171875 0.273438 7.050781 0.25 6.9375 0.21875 C 6.832031 0.1875 6.757812 0.164062 6.71875 0.15625 C 6.175781 -1.21875 5.675781 -2.671875 5.21875 -4.203125 C 4.757812 -5.742188 4.289062 -7.25 3.8125 -8.71875 C 3.644531 -9.238281 3.46875 -9.738281 3.28125 -10.21875 C 3.101562 -10.707031 2.910156 -11.191406 2.703125 -11.671875 C 2.585938 -11.703125 2.472656 -11.710938 2.359375 -11.703125 C 2.253906 -11.691406 2.15625 -11.679688 2.0625 -11.671875 C 1.945312 -11.640625 1.835938 -11.617188 1.734375 -11.609375 C 1.628906 -11.609375 1.523438 -11.628906 1.421875 -11.671875 C 1.328125 -11.804688 1.300781 -11.925781 1.34375 -12.03125 C 1.382812 -12.144531 1.429688 -12.253906 1.484375 -12.359375 C 1.503906 -12.398438 1.523438 -12.4375 1.546875 -12.46875 C 1.566406 -12.5 1.582031 -12.53125 1.59375 -12.5625 C 1.851562 -12.550781 2.109375 -12.550781 2.359375 -12.5625 C 2.617188 -12.582031 2.875 -12.597656 3.125 -12.609375 C 3.320312 -12.628906 3.519531 -12.644531 3.71875 -12.65625 C 3.914062 -12.664062 4.101562 -12.671875 4.28125 -12.671875 C 4.625 -12.648438 4.945312 -12.59375 5.25 -12.5 C 5.550781 -12.414062 5.8125 -12.238281 6.03125 -11.96875 C 5.800781 -11.851562 5.539062 -11.742188 5.25 -11.640625 C 4.96875 -11.546875 4.738281 -11.484375 4.5625 -11.453125 C 4.65625 -11.003906 4.765625 -10.550781 4.890625 -10.09375 C 5.015625 -9.644531 5.144531 -9.1875 5.28125 -8.71875 C 5.625 -7.601562 6 -6.484375 6.40625 -5.359375 C 6.820312 -4.234375 7.171875 -3.097656 7.453125 -1.953125 C 7.898438 -3.035156 8.351562 -4.128906 8.8125 -5.234375 C 9.269531 -6.347656 9.675781 -7.503906 10.03125 -8.703125 C 10.289062 -9.566406 10.503906 -10.4375 10.671875 -11.3125 C 10.578125 -11.457031 10.441406 -11.554688 10.265625 -11.609375 C 10.085938 -11.671875 9.898438 -11.726562 9.703125 -11.78125 C 9.515625 -11.832031 9.351562 -11.910156 9.21875 -12.015625 C 9.25 -12.203125 9.375 -12.34375 9.59375 -12.4375 C 9.8125 -12.539062 10.078125 -12.601562 10.390625 -12.625 C 10.710938 -12.65625 11.039062 -12.660156 11.375 -12.640625 C 11.71875 -12.628906 12.023438 -12.613281 12.296875 -12.59375 C 12.523438 -12.5625 12.738281 -12.5 12.9375 -12.40625 C 13.132812 -12.3125 13.28125 -12.195312 13.375 -12.0625 Z M 13.375 -12.0625 "/></g></g></g><g fill="#595858" fill-opacity="1"><g transform="translate(250.992511, 212.721608)"><g><path d="M 10.609375 -0.421875 L 10.46875 -0.28125 C 9.832031 -0.238281 9.179688 -0.210938 8.515625 -0.203125 C 7.859375 -0.191406 7.195312 -0.195312 6.53125 -0.21875 C 5.800781 -0.21875 5.078125 -0.210938 4.359375 -0.203125 C 3.640625 -0.191406 2.941406 -0.148438 2.265625 -0.078125 C 2.054688 -0.210938 1.960938 -0.347656 1.984375 -0.484375 C 2.015625 -0.617188 2.054688 -0.742188 2.109375 -0.859375 C 2.171875 -0.972656 2.203125 -1.050781 2.203125 -1.09375 C 2.285156 -1.144531 2.378906 -1.171875 2.484375 -1.171875 C 2.597656 -1.171875 2.710938 -1.171875 2.828125 -1.171875 C 2.890625 -1.171875 2.953125 -1.164062 3.015625 -1.15625 C 3.085938 -1.15625 3.160156 -1.160156 3.234375 -1.171875 C 3.296875 -2.109375 3.328125 -3.09375 3.328125 -4.125 C 3.328125 -5.164062 3.320312 -6.179688 3.3125 -7.171875 C 3.3125 -7.441406 3.304688 -7.703125 3.296875 -7.953125 C 3.285156 -8.210938 3.28125 -8.46875 3.28125 -8.71875 C 3.269531 -9.207031 3.265625 -9.671875 3.265625 -10.109375 C 3.273438 -10.546875 3.289062 -10.957031 3.3125 -11.34375 C 3.21875 -11.363281 3.117188 -11.375 3.015625 -11.375 C 2.921875 -11.382812 2.832031 -11.390625 2.75 -11.390625 C 2.582031 -11.390625 2.425781 -11.40625 2.28125 -11.4375 C 2.132812 -11.476562 2.007812 -11.566406 1.90625 -11.703125 C 1.914062 -11.742188 1.925781 -11.796875 1.9375 -11.859375 C 1.96875 -12.015625 2.007812 -12.164062 2.0625 -12.3125 C 2.125 -12.457031 2.242188 -12.523438 2.421875 -12.515625 C 2.910156 -12.492188 3.453125 -12.472656 4.046875 -12.453125 C 4.640625 -12.441406 5.226562 -12.4375 5.8125 -12.4375 C 6.40625 -12.4375 6.914062 -12.4375 7.34375 -12.4375 C 7.5 -12.4375 7.648438 -12.441406 7.796875 -12.453125 C 7.953125 -12.460938 8.109375 -12.472656 8.265625 -12.484375 C 8.703125 -12.523438 9.125 -12.546875 9.53125 -12.546875 C 9.9375 -12.546875 10.296875 -12.4375 10.609375 -12.21875 C 10.597656 -12.09375 10.59375 -11.941406 10.59375 -11.765625 C 10.601562 -11.597656 10.609375 -11.414062 10.609375 -11.21875 C 10.628906 -10.863281 10.632812 -10.5 10.625 -10.125 C 10.625 -9.757812 10.570312 -9.46875 10.46875 -9.25 C 10.238281 -9.195312 10.066406 -9.222656 9.953125 -9.328125 C 9.847656 -9.441406 9.78125 -9.59375 9.75 -9.78125 C 9.695312 -10.039062 9.660156 -10.332031 9.640625 -10.65625 C 9.617188 -10.976562 9.550781 -11.222656 9.4375 -11.390625 C 9.28125 -11.390625 9.109375 -11.390625 8.921875 -11.390625 C 8.734375 -11.390625 8.539062 -11.398438 8.34375 -11.421875 C 7.726562 -11.421875 7.078125 -11.421875 6.390625 -11.421875 C 5.703125 -11.421875 5.148438 -11.394531 4.734375 -11.34375 C 4.742188 -11.175781 4.75 -10.960938 4.75 -10.703125 C 4.75 -10.453125 4.742188 -10.164062 4.734375 -9.84375 C 4.734375 -9.664062 4.734375 -9.484375 4.734375 -9.296875 C 4.734375 -9.109375 4.734375 -8.914062 4.734375 -8.71875 C 4.734375 -8.414062 4.738281 -8.109375 4.75 -7.796875 C 4.769531 -7.492188 4.796875 -7.203125 4.828125 -6.921875 C 5.328125 -6.972656 5.84375 -7.003906 6.375 -7.015625 C 6.90625 -7.023438 7.425781 -7.046875 7.9375 -7.078125 C 8.101562 -7.148438 8.222656 -7.265625 8.296875 -7.421875 C 8.378906 -7.585938 8.453125 -7.757812 8.515625 -7.9375 C 8.578125 -8.125 8.660156 -8.285156 8.765625 -8.421875 C 8.847656 -8.472656 8.921875 -8.488281 8.984375 -8.46875 C 9.054688 -8.445312 9.128906 -8.414062 9.203125 -8.375 C 9.234375 -8.363281 9.265625 -8.347656 9.296875 -8.328125 C 9.335938 -8.304688 9.382812 -8.289062 9.4375 -8.28125 C 9.363281 -8 9.316406 -7.675781 9.296875 -7.3125 C 9.285156 -6.957031 9.285156 -6.597656 9.296875 -6.234375 C 9.296875 -5.921875 9.289062 -5.613281 9.28125 -5.3125 C 9.269531 -5.019531 9.242188 -4.769531 9.203125 -4.5625 C 8.910156 -4.53125 8.71875 -4.597656 8.625 -4.765625 C 8.539062 -4.941406 8.472656 -5.140625 8.421875 -5.359375 C 8.390625 -5.453125 8.359375 -5.539062 8.328125 -5.625 C 8.304688 -5.71875 8.28125 -5.800781 8.25 -5.875 C 7.65625 -5.96875 7.035156 -6.019531 6.390625 -6.03125 C 5.753906 -6.039062 5.203125 -5.941406 4.734375 -5.734375 C 4.753906 -5.023438 4.769531 -4.300781 4.78125 -3.5625 C 4.789062 -2.820312 4.773438 -2.050781 4.734375 -1.25 C 5.203125 -1.21875 5.71875 -1.195312 6.28125 -1.1875 C 6.84375 -1.175781 7.40625 -1.191406 7.96875 -1.234375 C 8.539062 -1.285156 9.054688 -1.367188 9.515625 -1.484375 C 9.648438 -1.722656 9.742188 -2 9.796875 -2.3125 C 9.847656 -2.625 9.921875 -2.921875 10.015625 -3.203125 C 10.117188 -3.484375 10.296875 -3.675781 10.546875 -3.78125 C 10.742188 -3.394531 10.832031 -2.96875 10.8125 -2.5 C 10.789062 -2.039062 10.75 -1.601562 10.6875 -1.1875 C 10.675781 -1.050781 10.660156 -0.914062 10.640625 -0.78125 C 10.617188 -0.65625 10.609375 -0.535156 10.609375 -0.421875 Z M 10.609375 -0.421875 "/></g></g></g><g fill="#595858" fill-opacity="1"><g transform="translate(263.86907, 212.721608)"><g><path d="M 10.859375 -3.953125 C 11.078125 -3.367188 11.164062 -2.726562 11.125 -2.03125 C 11.082031 -1.332031 10.957031 -0.703125 10.75 -0.140625 C 10.164062 -0.046875 9.492188 -0.00390625 8.734375 -0.015625 C 7.984375 -0.0234375 7.207031 -0.0546875 6.40625 -0.109375 C 5.664062 -0.148438 4.9375 -0.179688 4.21875 -0.203125 C 3.507812 -0.222656 2.859375 -0.203125 2.265625 -0.140625 C 2.148438 -0.398438 2.164062 -0.609375 2.3125 -0.765625 C 2.457031 -0.929688 2.664062 -1.0625 2.9375 -1.15625 C 3.207031 -1.257812 3.457031 -1.335938 3.6875 -1.390625 C 3.75 -2.367188 3.773438 -3.441406 3.765625 -4.609375 C 3.765625 -5.785156 3.753906 -6.953125 3.734375 -8.109375 C 3.734375 -8.210938 3.734375 -8.316406 3.734375 -8.421875 C 3.734375 -8.523438 3.734375 -8.625 3.734375 -8.71875 C 3.710938 -9.25 3.695312 -9.757812 3.6875 -10.25 C 3.6875 -10.75 3.6875 -11.222656 3.6875 -11.671875 C 3.519531 -11.742188 3.363281 -11.765625 3.21875 -11.734375 C 3.082031 -11.710938 2.945312 -11.679688 2.8125 -11.640625 C 2.707031 -11.609375 2.597656 -11.582031 2.484375 -11.5625 C 2.378906 -11.539062 2.273438 -11.550781 2.171875 -11.59375 C 2.160156 -11.613281 2.144531 -11.632812 2.125 -11.65625 C 2.113281 -11.6875 2.09375 -11.707031 2.0625 -11.71875 C 1.976562 -11.832031 1.953125 -11.929688 1.984375 -12.015625 C 2.015625 -12.097656 2.054688 -12.1875 2.109375 -12.28125 C 2.160156 -12.34375 2.207031 -12.414062 2.25 -12.5 C 2.289062 -12.582031 2.296875 -12.679688 2.265625 -12.796875 C 2.546875 -12.671875 2.875 -12.601562 3.25 -12.59375 C 3.625 -12.59375 4 -12.601562 4.375 -12.625 C 4.519531 -12.632812 4.660156 -12.644531 4.796875 -12.65625 C 4.941406 -12.664062 5.085938 -12.671875 5.234375 -12.671875 C 5.597656 -12.671875 5.921875 -12.617188 6.203125 -12.515625 C 6.484375 -12.421875 6.671875 -12.207031 6.765625 -11.875 C 6.671875 -11.789062 6.566406 -11.738281 6.453125 -11.71875 C 6.347656 -11.707031 6.234375 -11.703125 6.109375 -11.703125 C 5.953125 -11.703125 5.796875 -11.6875 5.640625 -11.65625 C 5.492188 -11.632812 5.363281 -11.535156 5.25 -11.359375 C 5.207031 -10.535156 5.1875 -9.65625 5.1875 -8.71875 C 5.1875 -8.46875 5.1875 -8.203125 5.1875 -7.921875 C 5.1875 -7.648438 5.1875 -7.378906 5.1875 -7.109375 C 5.195312 -6.160156 5.195312 -5.179688 5.1875 -4.171875 C 5.1875 -3.160156 5.160156 -2.132812 5.109375 -1.09375 C 5.328125 -1.019531 5.535156 -0.984375 5.734375 -0.984375 C 5.929688 -0.992188 6.132812 -1.007812 6.34375 -1.03125 C 6.4375 -1.050781 6.53125 -1.066406 6.625 -1.078125 C 6.71875 -1.085938 6.8125 -1.09375 6.90625 -1.09375 C 7.03125 -1.09375 7.160156 -1.085938 7.296875 -1.078125 C 7.429688 -1.066406 7.566406 -1.050781 7.703125 -1.03125 C 7.910156 -1.007812 8.113281 -0.988281 8.3125 -0.96875 C 8.519531 -0.957031 8.722656 -0.976562 8.921875 -1.03125 C 9.273438 -1.132812 9.507812 -1.332031 9.625 -1.625 C 9.738281 -1.914062 9.84375 -2.226562 9.9375 -2.5625 C 10.007812 -2.851562 10.109375 -3.132812 10.234375 -3.40625 C 10.359375 -3.675781 10.566406 -3.859375 10.859375 -3.953125 Z M 10.859375 -3.953125 "/></g></g></g><g fill="#595858" fill-opacity="1"><g transform="translate(275.976873, 212.721608)"><g><path d="M 9.921875 -2.5 C 9.773438 -1.9375 9.492188 -1.453125 9.078125 -1.046875 C 8.660156 -0.640625 8.171875 -0.34375 7.609375 -0.15625 C 7.046875 0.0390625 6.429688 0.128906 5.765625 0.109375 C 5.109375 0.0859375 4.445312 -0.0507812 3.78125 -0.3125 C 3.65625 -0.28125 3.546875 -0.226562 3.453125 -0.15625 C 3.367188 -0.09375 3.285156 -0.015625 3.203125 0.078125 C 3.085938 0.191406 2.972656 0.273438 2.859375 0.328125 C 2.742188 0.390625 2.585938 0.335938 2.390625 0.171875 C 2.242188 -0.0546875 2.144531 -0.359375 2.09375 -0.734375 C 2.039062 -1.117188 2.023438 -1.523438 2.046875 -1.953125 C 2.066406 -2.378906 2.113281 -2.78125 2.1875 -3.15625 C 2.269531 -3.539062 2.367188 -3.84375 2.484375 -4.0625 C 2.773438 -3.957031 2.972656 -3.789062 3.078125 -3.5625 C 3.179688 -3.34375 3.257812 -3.097656 3.3125 -2.828125 C 3.375 -2.546875 3.429688 -2.265625 3.484375 -1.984375 C 3.546875 -1.710938 3.675781 -1.46875 3.875 -1.25 C 4.09375 -1.03125 4.351562 -0.875 4.65625 -0.78125 C 4.96875 -0.6875 5.289062 -0.640625 5.625 -0.640625 C 6.050781 -0.648438 6.472656 -0.726562 6.890625 -0.875 C 7.304688 -1.019531 7.671875 -1.21875 7.984375 -1.46875 C 8.296875 -1.71875 8.5 -2.003906 8.59375 -2.328125 C 8.664062 -2.878906 8.644531 -3.320312 8.53125 -3.65625 C 8.414062 -3.988281 8.238281 -4.265625 8 -4.484375 C 7.695312 -4.765625 7.332031 -4.988281 6.90625 -5.15625 C 6.476562 -5.332031 6.050781 -5.539062 5.625 -5.78125 C 5.457031 -5.882812 5.304688 -6.003906 5.171875 -6.140625 C 5.046875 -6.285156 4.898438 -6.40625 4.734375 -6.5 C 4.546875 -6.601562 4.351562 -6.6875 4.15625 -6.75 C 3.957031 -6.8125 3.789062 -6.882812 3.65625 -6.96875 C 3.351562 -7.164062 3.097656 -7.414062 2.890625 -7.71875 C 2.679688 -8.03125 2.523438 -8.363281 2.421875 -8.71875 C 2.367188 -8.90625 2.328125 -9.09375 2.296875 -9.28125 C 2.273438 -9.476562 2.265625 -9.675781 2.265625 -9.875 C 2.265625 -10.289062 2.332031 -10.695312 2.46875 -11.09375 C 2.601562 -11.488281 2.8125 -11.847656 3.09375 -12.171875 C 3.59375 -12.398438 4.15625 -12.578125 4.78125 -12.703125 C 5.414062 -12.828125 6.054688 -12.878906 6.703125 -12.859375 C 7.359375 -12.847656 7.96875 -12.71875 8.53125 -12.46875 C 8.582031 -12.5 8.625 -12.53125 8.65625 -12.5625 C 8.695312 -12.601562 8.734375 -12.648438 8.765625 -12.703125 C 8.835938 -12.796875 8.914062 -12.867188 9 -12.921875 C 9.082031 -12.984375 9.207031 -12.960938 9.375 -12.859375 C 9.457031 -12.546875 9.503906 -12.160156 9.515625 -11.703125 C 9.535156 -11.253906 9.523438 -10.816406 9.484375 -10.390625 C 9.441406 -9.960938 9.351562 -9.640625 9.21875 -9.421875 C 8.957031 -9.429688 8.769531 -9.519531 8.65625 -9.6875 C 8.550781 -9.863281 8.488281 -10.078125 8.46875 -10.328125 C 8.445312 -10.585938 8.4375 -10.859375 8.4375 -11.140625 C 8.4375 -11.171875 8.4375 -11.191406 8.4375 -11.203125 C 8.144531 -11.472656 7.765625 -11.679688 7.296875 -11.828125 C 6.835938 -11.972656 6.363281 -12.046875 5.875 -12.046875 C 5.488281 -12.046875 5.125 -11.988281 4.78125 -11.875 C 4.445312 -11.769531 4.171875 -11.601562 3.953125 -11.375 C 3.773438 -11.1875 3.644531 -10.957031 3.5625 -10.6875 C 3.488281 -10.414062 3.492188 -10.09375 3.578125 -9.71875 C 3.597656 -9.582031 3.660156 -9.425781 3.765625 -9.25 C 3.878906 -9.082031 3.988281 -8.945312 4.09375 -8.84375 L 4.203125 -8.71875 C 4.515625 -8.4375 4.894531 -8.175781 5.34375 -7.9375 C 5.800781 -7.695312 6.285156 -7.453125 6.796875 -7.203125 C 7.316406 -6.953125 7.800781 -6.671875 8.25 -6.359375 C 8.664062 -6.078125 9.023438 -5.753906 9.328125 -5.390625 C 9.640625 -5.035156 9.859375 -4.617188 9.984375 -4.140625 C 10.109375 -3.671875 10.085938 -3.125 9.921875 -2.5 Z M 9.921875 -2.5 "/></g></g></g><g fill="#595858" fill-opacity="1"><g transform="translate(287.701298, 212.721608)"><g/></g></g></svg>